<?xml version="1.0" encoding="UTF-8"?>
<!DOCTYPE svg PUBLIC "-//W3C//DTD SVG 1.1//EN" "http://www.w3.org/Graphics/SVG/1.1/DTD/svg11.dtd">
<svg xmlns="http://www.w3.org/2000/svg" version="1.1" width="464px" height="537px" style="shape-rendering:geometricPrecision; text-rendering:geometricPrecision; image-rendering:optimizeQuality; fill-rule:evenodd; clip-rule:evenodd" xmlns:xlink="http://www.w3.org/1999/xlink">
<g><path style="opacity:0.153" fill="#d0c08a" d="M 266.5,50.5 C 266.5,50.1667 266.5,49.8333 266.5,49.5C 272.014,48.8335 277.681,48.1668 283.5,47.5C 287.634,45.6922 290.468,42.6922 292,38.5C 292.499,33.5111 292.666,28.5111 292.5,23.5C 256.197,22.5192 219.864,22.1858 183.5,22.5C 183.5,22.1667 183.5,21.8333 183.5,21.5C 220.128,21.3314 256.794,21.3314 293.5,21.5C 297.952,43.7145 288.952,53.3812 266.5,50.5 Z"/></g>
<g><path style="opacity:1" fill="#d3b861" d="M 170.5,23.5 C 175.5,23.5 180.5,23.5 185.5,23.5C 185.787,25.1207 186.787,26.1207 188.5,26.5C 193.445,26.5037 197.945,26.1704 202,25.5C 202.667,26.1667 203.333,26.8333 204,27.5C 205.667,27.1667 207.333,26.8333 209,26.5C 212.745,27.297 216.579,27.797 220.5,28C 210.813,28.6262 201.147,29.4595 191.5,30.5C 195.384,32.2655 198.884,32.5988 202,31.5C 202.875,34.2146 204.708,35.5479 207.5,35.5C 207.5,36.8333 207.5,38.1667 207.5,39.5C 209.5,39.5 211.5,39.5 213.5,39.5C 213.5,42.1667 213.5,44.8333 213.5,47.5C 210.331,47.4452 207.164,47.4452 204,47.5C 203.667,50.8333 203.333,54.1667 203,57.5C 202.535,58.9308 201.701,60.0975 200.5,61C 201.448,61.4828 202.448,61.6495 203.5,61.5C 203.666,67.8421 203.5,74.1754 203,80.5C 201.551,75.0187 201.051,69.352 201.5,63.5C 200.178,63.67 199.011,63.3366 198,62.5C 197.809,60.2922 197.309,58.2922 196.5,56.5C 196.5,53.1667 196.5,49.8333 196.5,46.5C 189.784,47.873 183.117,47.7064 176.5,46C 175.663,44.9887 175.33,43.8221 175.5,42.5C 173.856,42.7135 172.356,42.3802 171,41.5C 170.501,35.5092 170.334,29.5092 170.5,23.5 Z"/></g>
<g><path style="opacity:1" fill="#cdb259" d="M 185.5,23.5 C 202.484,22.959 219.317,23.959 236,26.5C 236.333,26.1667 236.667,25.8333 237,25.5C 240.147,26.2776 243.313,27.1109 246.5,28C 245.663,29.0113 245.33,30.1779 245.5,31.5C 246.822,31.67 247.989,31.3366 249,30.5C 250,32.1667 251,33.8333 252,35.5C 255.722,39.0987 259.556,42.5987 263.5,46C 262.244,46.4169 261.577,47.2502 261.5,48.5C 261.34,50.1992 261.506,51.8659 262,53.5C 262.667,54.8333 263.333,54.8333 264,53.5C 264.49,54.7932 264.657,56.1266 264.5,57.5C 263.5,57.5 262.5,57.5 261.5,57.5C 261.705,63.8778 261.372,70.2111 260.5,76.5C 259.4,78.2774 258.566,80.2774 258,82.5C 257.685,79.8532 256.518,79.1865 254.5,80.5C 253.719,79.2713 253.219,77.938 253,76.5C 252.814,78.9005 252.314,81.2338 251.5,83.5C 251.167,83.3333 250.833,83.1667 250.5,83C 249.686,76.2471 249.186,69.4137 249,62.5C 247.644,61.6198 246.144,61.2865 244.5,61.5C 244.797,57.2325 244.464,53.0659 243.5,49C 234.657,48.1764 225.99,48.3431 217.5,49.5C 216.833,49.5 216.5,49.8333 216.5,50.5C 215.5,50.5 214.5,50.5 213.5,50.5C 213.5,49.5 213.5,48.5 213.5,47.5C 213.5,44.8333 213.5,42.1667 213.5,39.5C 211.5,39.5 209.5,39.5 207.5,39.5C 207.5,38.1667 207.5,36.8333 207.5,35.5C 204.708,35.5479 202.875,34.2146 202,31.5C 198.884,32.5988 195.384,32.2655 191.5,30.5C 201.147,29.4595 210.813,28.6262 220.5,28C 216.579,27.797 212.745,27.297 209,26.5C 207.333,26.8333 205.667,27.1667 204,27.5C 203.333,26.8333 202.667,26.1667 202,25.5C 197.945,26.1704 193.445,26.5037 188.5,26.5C 186.787,26.1207 185.787,25.1207 185.5,23.5 Z"/></g>
<g><path style="opacity:1" fill="#c6ab52" d="M 170.5,23.5 C 174.634,22.5151 178.968,22.1818 183.5,22.5C 219.864,22.1858 256.197,22.5192 292.5,23.5C 292.666,28.5111 292.499,33.5111 292,38.5C 290.468,42.6922 287.634,45.6922 283.5,47.5C 277.681,48.1668 272.014,48.8335 266.5,49.5C 264.876,49.6399 263.71,48.9733 263,47.5C 262.617,48.056 262.117,48.3893 261.5,48.5C 261.577,47.2502 262.244,46.4169 263.5,46C 259.556,42.5987 255.722,39.0987 252,35.5C 251,33.8333 250,32.1667 249,30.5C 247.989,31.3366 246.822,31.67 245.5,31.5C 245.33,30.1779 245.663,29.0113 246.5,28C 243.313,27.1109 240.147,26.2776 237,25.5C 236.667,25.8333 236.333,26.1667 236,26.5C 219.317,23.959 202.484,22.959 185.5,23.5C 180.5,23.5 175.5,23.5 170.5,23.5 Z"/></g>
<g><path style="opacity:0.427" fill="#dacb9f" d="M 183.5,21.5 C 183.5,21.8333 183.5,22.1667 183.5,22.5C 178.968,22.1818 174.634,22.5151 170.5,23.5C 169.51,29.31 169.177,35.31 169.5,41.5C 168.732,40.7375 168.232,39.7375 168,38.5C 167.333,33.1667 167.333,27.8333 168,22.5C 173.072,21.5286 178.238,21.1953 183.5,21.5 Z"/></g>
<g><path style="opacity:1" fill="#cfb060" d="M 266.5,49.5 C 266.5,49.8333 266.5,50.1667 266.5,50.5C 265.502,73.3273 265.169,96.3273 265.5,119.5C 264.669,106.673 264.169,93.6731 264,80.5C 263.832,90.5425 263.165,100.542 262,110.5C 261.812,99.0909 261.312,87.7575 260.5,76.5C 261.372,70.2111 261.705,63.8778 261.5,57.5C 262.5,57.5 263.5,57.5 264.5,57.5C 264.657,56.1266 264.49,54.7932 264,53.5C 263.333,54.8333 262.667,54.8333 262,53.5C 261.506,51.8659 261.34,50.1992 261.5,48.5C 262.117,48.3893 262.617,48.056 263,47.5C 263.71,48.9733 264.876,49.6399 266.5,49.5 Z"/></g>
<g><path style="opacity:0.596" fill="#d4c07f" d="M 170.5,23.5 C 170.334,29.5092 170.501,35.5092 171,41.5C 172.356,42.3802 173.856,42.7135 175.5,42.5C 175.33,43.8221 175.663,44.9887 176.5,46C 183.117,47.7064 189.784,47.873 196.5,46.5C 196.5,49.8333 196.5,53.1667 196.5,56.5C 196.667,77.5026 196.5,98.5026 196,119.5C 195.411,121.863 193.911,122.863 191.5,122.5C 173.833,122.5 156.167,122.5 138.5,122.5C 137.167,122.5 135.833,122.5 134.5,122.5C 153.996,121.668 173.662,121.168 193.5,121C 194.056,120.617 194.389,120.117 194.5,119.5C 194.5,96.5 194.5,73.5 194.5,50.5C 187.639,51.0349 180.972,50.2016 174.5,48C 171.979,46.4421 170.312,44.2755 169.5,41.5C 169.177,35.31 169.51,29.31 170.5,23.5 Z"/></g>
<g><path style="opacity:0.145" fill="#e6dbbc" d="M 266.5,50.5 C 266.5,73.5 266.5,96.5 266.5,119.5C 285.674,119.17 304.674,119.503 323.5,120.5C 305.167,120.5 286.833,120.5 268.5,120.5C 267.209,120.737 266.209,120.404 265.5,119.5C 265.169,96.3273 265.502,73.3273 266.5,50.5 Z"/></g>
<g><path style="opacity:0.396" fill="#d7c58b" d="M 244.5,61.5 C 244.5,81.1667 244.5,100.833 244.5,120.5C 244.516,122.484 243.516,123.484 241.5,123.5C 233.506,122.894 225.506,122.227 217.5,121.5C 217.192,120.692 216.692,120.025 216,119.5C 216.436,96.5296 216.602,73.5296 216.5,50.5C 216.5,49.8333 216.833,49.5 217.5,49.5C 225.99,48.3431 234.657,48.1764 243.5,49C 244.464,53.0659 244.797,57.2325 244.5,61.5 Z M 219.5,50.5 C 227.5,50.5 235.5,50.5 243.5,50.5C 243.5,73.5 243.5,96.5 243.5,119.5C 234.983,119.826 226.65,119.493 218.5,118.5C 218.169,95.6605 218.503,72.9939 219.5,50.5 Z"/></g>
<g><path style="opacity:0.027" fill="#e7dbba" d="M 217.5,49.5 C 218.492,49.3284 219.158,49.6618 219.5,50.5C 218.503,72.9939 218.169,95.6605 218.5,118.5C 217.502,95.6727 217.169,72.6727 217.5,49.5 Z"/></g>
<g><path style="opacity:1" fill="#d4b963" d="M 244.5,61.5 C 246.144,61.2865 247.644,61.6198 249,62.5C 249.186,69.4137 249.686,76.2471 250.5,83C 250.833,83.1667 251.167,83.3333 251.5,83.5C 252.314,81.2338 252.814,78.9005 253,76.5C 253.219,77.938 253.719,79.2713 254.5,80.5C 256.518,79.1865 257.685,79.8532 258,82.5C 258.566,80.2774 259.4,78.2774 260.5,76.5C 261.312,87.7575 261.812,99.0909 262,110.5C 263.165,100.542 263.832,90.5425 264,80.5C 264.169,93.6731 264.669,106.673 265.5,119.5C 266.209,120.404 267.209,120.737 268.5,120.5C 287.996,121.332 307.662,121.832 327.5,122C 328.527,122.513 329.527,123.013 330.5,123.5C 330.712,125.384 331.712,126.717 333.5,127.5C 334.496,133.798 334.83,140.132 334.5,146.5C 316.167,146.5 297.833,146.5 279.5,146.5C 273.669,143.51 267.335,141.844 260.5,141.5C 259.253,139.677 258.586,137.677 258.5,135.5C 257.127,135.657 255.793,135.49 254.5,135C 252.5,131.667 249.833,129 246.5,127C 249.412,124.256 249.578,121.756 247,119.5C 246.329,120.252 245.496,120.586 244.5,120.5C 244.5,100.833 244.5,81.1667 244.5,61.5 Z"/></g>
<g><path style="opacity:0.386" fill="#e7dcb7" d="M 194.5,119.5 C 194.389,120.117 194.056,120.617 193.5,121C 173.662,121.168 153.996,121.668 134.5,122.5C 131.681,125.075 128.681,127.408 125.5,129.5C 127.264,123.574 131.264,120.408 137.5,120C 156.497,119.5 175.497,119.333 194.5,119.5 Z"/></g>
<g><path style="opacity:0.377" fill="#cbbd8d" d="M 268.5,120.5 C 286.833,120.5 305.167,120.5 323.5,120.5C 328.61,120.276 332.61,122.276 335.5,126.5C 333.589,125.925 331.922,124.925 330.5,123.5C 329.527,123.013 328.527,122.513 327.5,122C 307.662,121.832 287.996,121.332 268.5,120.5 Z"/></g>
<g><path style="opacity:1" fill="#dcc06a" d="M 213.5,47.5 C 213.5,48.5 213.5,49.5 213.5,50.5C 214.5,50.5 215.5,50.5 216.5,50.5C 216.602,73.5296 216.436,96.5296 216,119.5C 216.692,120.025 217.192,120.692 217.5,121.5C 225.506,122.227 233.506,122.894 241.5,123.5C 243.516,123.484 244.516,122.484 244.5,120.5C 245.496,120.586 246.329,120.252 247,119.5C 249.578,121.756 249.412,124.256 246.5,127C 249.833,129 252.5,131.667 254.5,135C 255.793,135.49 257.127,135.657 258.5,135.5C 258.586,137.677 259.253,139.677 260.5,141.5C 267.335,141.844 273.669,143.51 279.5,146.5C 261.167,146.5 242.833,146.5 224.5,146.5C 228.982,145.674 233.649,145.174 238.5,145C 234.249,143.805 229.915,143.305 225.5,143.5C 225.101,139.266 222.768,136.766 218.5,136C 219.641,135.259 219.641,134.425 218.5,133.5C 215.764,132.138 213.431,130.304 211.5,128C 212.308,127.692 212.975,127.192 213.5,126.5C 210.914,125.52 208.247,125.187 205.5,125.5C 205.949,123.023 205.283,121.023 203.5,119.5C 201.842,123.322 199.009,125.989 195,127.5C 194.629,125.752 193.462,124.086 191.5,122.5C 193.911,122.863 195.411,121.863 196,119.5C 196.5,98.5026 196.667,77.5026 196.5,56.5C 197.309,58.2922 197.809,60.2922 198,62.5C 199.011,63.3366 200.178,63.67 201.5,63.5C 201.051,69.352 201.551,75.0187 203,80.5C 203.5,74.1754 203.666,67.8421 203.5,61.5C 202.448,61.6495 201.448,61.4828 200.5,61C 201.701,60.0975 202.535,58.9308 203,57.5C 203.333,54.1667 203.667,50.8333 204,47.5C 207.164,47.4452 210.331,47.4452 213.5,47.5 Z"/></g>
<g><path style="opacity:1" fill="#e5c973" d="M 224.5,146.5 C 214.5,146.5 204.5,146.5 194.5,146.5C 193.737,145.732 192.737,145.232 191.5,145C 187.179,144.501 182.846,144.334 178.5,144.5C 178.628,142.345 178.128,140.345 177,138.5C 174.622,136.5 172.455,134.333 170.5,132C 169.5,131.5 168.5,131 167.5,130.5C 166.158,132.005 164.492,132.672 162.5,132.5C 162.5,131.5 162.5,130.5 162.5,129.5C 163.5,129.5 164.5,129.5 165.5,129.5C 165.649,128.448 165.483,127.448 165,126.5C 164,126.833 163,127.167 162,127.5C 161.667,126.833 161.333,126.167 161,125.5C 160,125.833 159,126.167 158,126.5C 153.251,125.695 148.418,125.195 143.5,125C 141.509,124.626 139.842,123.793 138.5,122.5C 156.167,122.5 173.833,122.5 191.5,122.5C 193.462,124.086 194.629,125.752 195,127.5C 199.009,125.989 201.842,123.322 203.5,119.5C 205.283,121.023 205.949,123.023 205.5,125.5C 208.247,125.187 210.914,125.52 213.5,126.5C 212.975,127.192 212.308,127.692 211.5,128C 213.431,130.304 215.764,132.138 218.5,133.5C 219.641,134.425 219.641,135.259 218.5,136C 222.768,136.766 225.101,139.266 225.5,143.5C 229.915,143.305 234.249,143.805 238.5,145C 233.649,145.174 228.982,145.674 224.5,146.5 Z"/></g>
<g><path style="opacity:1" fill="#edd07b" d="M 134.5,122.5 C 135.833,122.5 137.167,122.5 138.5,122.5C 139.842,123.793 141.509,124.626 143.5,125C 148.418,125.195 153.251,125.695 158,126.5C 159,126.167 160,125.833 161,125.5C 161.333,126.167 161.667,126.833 162,127.5C 163,127.167 164,126.833 165,126.5C 165.483,127.448 165.649,128.448 165.5,129.5C 164.5,129.5 163.5,129.5 162.5,129.5C 162.5,130.5 162.5,131.5 162.5,132.5C 164.492,132.672 166.158,132.005 167.5,130.5C 168.5,131 169.5,131.5 170.5,132C 172.455,134.333 174.622,136.5 177,138.5C 178.128,140.345 178.628,142.345 178.5,144.5C 182.846,144.334 187.179,144.501 191.5,145C 192.737,145.232 193.737,145.732 194.5,146.5C 171.833,146.5 149.167,146.5 126.5,146.5C 125.879,141.398 125.213,136.398 124.5,131.5C 124.833,130.833 125.167,130.167 125.5,129.5C 128.681,127.408 131.681,125.075 134.5,122.5 Z"/></g>
<g><path style="opacity:0.612" fill="#cebb78" d="M 330.5,123.5 C 331.922,124.925 333.589,125.925 335.5,126.5C 337.678,133.509 338.011,140.509 336.5,147.5C 266.331,147.833 196.331,147.499 126.5,146.5C 149.167,146.5 171.833,146.5 194.5,146.5C 204.5,146.5 214.5,146.5 224.5,146.5C 242.833,146.5 261.167,146.5 279.5,146.5C 297.833,146.5 316.167,146.5 334.5,146.5C 334.83,140.132 334.496,133.798 333.5,127.5C 331.712,126.717 330.712,125.384 330.5,123.5 Z"/></g>
<g><path style="opacity:0.102" fill="#d0c693" d="M 124.5,131.5 C 125.213,136.398 125.879,141.398 126.5,146.5C 196.331,147.499 266.331,147.833 336.5,147.5C 266.335,148.665 196.001,148.832 125.5,148C 124.527,142.593 124.193,137.093 124.5,131.5 Z"/></g>
<g><path style="opacity:0.614" fill="#ebd599" d="M 105.5,161.5 C 112.833,162.167 120.167,162.833 127.5,163.5C 113.167,163.5 98.8333,163.5 84.5,163.5C 70.8293,163.333 57.1626,163.5 43.5,164C 39.4486,165.238 35.4486,166.404 31.5,167.5C 35.7885,165.076 40.4551,163.243 45.5,162C 65.4972,161.5 85.4972,161.333 105.5,161.5 Z"/></g>
<g><path style="opacity:0.622" fill="#eed9a5" d="M 105.5,161.5 C 132.5,161.5 159.5,161.5 186.5,161.5C 171.833,162.167 157.167,162.833 142.5,163.5C 137.5,163.5 132.5,163.5 127.5,163.5C 120.167,162.833 112.833,162.167 105.5,161.5 Z"/></g>
<g><path style="opacity:0.591" fill="#d8be7b" d="M 186.5,161.5 C 186.833,161.5 187.167,161.5 187.5,161.5C 261.167,162.167 334.833,162.833 408.5,163.5C 400.167,163.5 391.833,163.5 383.5,163.5C 360.833,163.5 338.167,163.5 315.5,163.5C 293.833,163.5 272.167,163.5 250.5,163.5C 227.5,163.5 204.5,163.5 181.5,163.5C 168.5,163.5 155.5,163.5 142.5,163.5C 157.167,162.833 171.833,162.167 186.5,161.5 Z"/></g>
<g><path style="opacity:1" fill="#e9cd78" d="M 84.5,163.5 C 75.0087,164.33 65.342,164.83 55.5,165C 64.5198,165.251 73.5198,165.751 82.5,166.5C 89.0575,165.751 95.5575,165.418 102,165.5C 107.251,165.885 112.418,166.718 117.5,168C 111.482,168.642 105.482,168.475 99.5,167.5C 96.6773,167.949 94.1773,168.949 92,170.5C 90.8926,170.415 89.8926,170.081 89,169.5C 85.2546,170.297 81.4213,170.797 77.5,171C 78,171.5 78.5,172 79,172.5C 81.4541,170.987 83.1207,171.654 84,174.5C 87,174.167 90,173.833 93,173.5C 96.3249,174.944 99.8249,175.944 103.5,176.5C 116.833,177.167 130.167,177.833 143.5,178.5C 140.777,179.611 137.944,180.278 135,180.5C 120.183,179.391 105.35,179.224 90.5,180C 100.217,180.307 109.884,181.14 119.5,182.5C 111.521,183.332 103.521,183.832 95.5,184C 128.833,184.667 162.167,184.667 195.5,184C 194.167,183.667 192.833,183.333 191.5,183C 194.303,182.245 196.97,182.578 199.5,184C 204.823,184.499 210.156,184.666 215.5,184.5C 215.5,183.167 215.5,181.833 215.5,180.5C 194.14,180.039 172.807,179.539 151.5,179C 150.833,178.667 150.167,178.333 149.5,178C 173.833,177.667 198.167,177.333 222.5,177C 220.305,176.3 217.805,175.467 215,174.5C 212.667,174.833 210.333,175.167 208,175.5C 205.419,174.61 204.086,172.943 204,170.5C 204.654,171.696 205.154,171.696 205.5,170.5C 205.023,169.522 204.357,168.689 203.5,168C 198.797,167.039 194.13,166.372 189.5,166C 193.167,165.667 196.833,165.333 200.5,165C 193.987,164.828 187.653,164.328 181.5,163.5C 204.5,163.5 227.5,163.5 250.5,163.5C 251.952,164.302 253.618,164.802 255.5,165C 250.167,165.333 244.833,165.667 239.5,166C 242.167,166.333 244.833,166.667 247.5,167C 244.118,167.176 240.785,167.676 237.5,168.5C 239.298,170.332 241.132,170.665 243,169.5C 245.8,170.128 248.467,171.128 251,172.5C 253.141,171.925 255.641,171.592 258.5,171.5C 259.263,172.268 260.263,172.768 261.5,173C 260.663,174.011 260.33,175.178 260.5,176.5C 247.833,177.539 235.166,178.539 222.5,179.5C 222.413,182.598 222.913,182.932 224,180.5C 224.333,181.167 224.667,181.833 225,182.5C 228,182.167 231,181.833 234,181.5C 236.893,184.15 240.393,185.15 244.5,184.5C 244.5,184.833 244.5,185.167 244.5,185.5C 177.331,185.168 110.331,185.501 43.5,186.5C 40.0921,185.828 37.4255,186.828 35.5,189.5C 32.4463,186.617 29.9463,186.95 28,190.5C 25.7911,189.08 23.7911,187.413 22,185.5C 21.6667,185.833 21.3333,186.167 21,186.5C 19.9326,185.809 18.7659,185.309 17.5,185C 19.16,183.512 20.16,181.679 20.5,179.5C 20.3505,178.448 20.5172,177.448 21,176.5C 24.7366,173.583 28.2366,170.583 31.5,167.5C 35.4486,166.404 39.4486,165.238 43.5,164C 57.1626,163.5 70.8293,163.333 84.5,163.5 Z"/></g>
<g><path style="opacity:0.925" fill="#ccbb89" d="M 187.5,161.5 C 263.167,161.333 338.834,161.5 414.5,162C 428.04,164.752 438.373,171.919 445.5,183.5C 439.386,180.218 434.386,175.718 430.5,170C 427.242,169.997 424.575,168.83 422.5,166.5C 417.824,165.497 413.157,164.497 408.5,163.5C 334.833,162.833 261.167,162.167 187.5,161.5 Z"/></g>
<g><path style="opacity:1" fill="#dabe69" d="M 250.5,163.5 C 272.167,163.5 293.833,163.5 315.5,163.5C 317.631,164.314 319.964,164.814 322.5,165C 317.859,164.691 314.026,166.191 311,169.5C 309.06,168.306 307.227,168.306 305.5,169.5C 311.125,170.588 316.792,171.421 322.5,172C 323.191,173.067 323.691,174.234 324,175.5C 325.667,175.167 327.333,174.833 329,174.5C 330.509,175.09 332.009,175.756 333.5,176.5C 339.5,177.167 345.5,177.833 351.5,178.5C 350.975,179.192 350.308,179.692 349.5,180C 346.242,180.212 343.076,180.712 340,181.5C 339.667,181.167 339.333,180.833 339,180.5C 338.517,181.448 338.351,182.448 338.5,183.5C 351.333,183.932 364,184.599 376.5,185.5C 359.833,185.5 343.167,185.5 326.5,185.5C 299.167,185.5 271.833,185.5 244.5,185.5C 244.5,185.167 244.5,184.833 244.5,184.5C 262.185,184.731 279.852,184.398 297.5,183.5C 297.649,182.448 297.483,181.448 297,180.5C 296.346,181.696 295.846,181.696 295.5,180.5C 298.167,179.833 300.833,179.167 303.5,178.5C 299.284,177.78 295.284,176.447 291.5,174.5C 293.766,173.686 296.1,173.186 298.5,173C 297.833,172.667 297.167,172.333 296.5,172C 292.055,171.738 288.221,171.905 285,172.5C 281.333,171.833 277.667,171.167 274,170.5C 269.466,171.155 264.299,171.488 258.5,171.5C 255.641,171.592 253.141,171.925 251,172.5C 248.467,171.128 245.8,170.128 243,169.5C 241.132,170.665 239.298,170.332 237.5,168.5C 240.785,167.676 244.118,167.176 247.5,167C 244.833,166.667 242.167,166.333 239.5,166C 244.833,165.667 250.167,165.333 255.5,165C 253.618,164.802 251.952,164.302 250.5,163.5 Z"/></g>
<g><path style="opacity:1" fill="#cfb45d" d="M 315.5,163.5 C 338.167,163.5 360.833,163.5 383.5,163.5C 377.681,164.328 371.681,164.828 365.5,165C 376.848,165.168 388.181,165.668 399.5,166.5C 393.819,167.805 388.153,169.305 382.5,171C 383.76,172.113 384.927,172.28 386,171.5C 387.885,172.313 388.551,173.647 388,175.5C 385.667,175.167 383.333,174.833 381,174.5C 380.312,175.332 380.479,175.998 381.5,176.5C 389.492,177.197 397.492,178.03 405.5,179C 404.692,179.308 404.025,179.808 403.5,180.5C 406.73,181.808 410.064,182.808 413.5,183.5C 414.713,183.747 415.38,184.414 415.5,185.5C 402.5,184.167 389.5,184.167 376.5,185.5C 364,184.599 351.333,183.932 338.5,183.5C 338.351,182.448 338.517,181.448 339,180.5C 339.333,180.833 339.667,181.167 340,181.5C 343.076,180.712 346.242,180.212 349.5,180C 350.308,179.692 350.975,179.192 351.5,178.5C 345.5,177.833 339.5,177.167 333.5,176.5C 332.009,175.756 330.509,175.09 329,174.5C 327.333,174.833 325.667,175.167 324,175.5C 323.691,174.234 323.191,173.067 322.5,172C 316.792,171.421 311.125,170.588 305.5,169.5C 307.227,168.306 309.06,168.306 311,169.5C 314.026,166.191 317.859,164.691 322.5,165C 319.964,164.814 317.631,164.314 315.5,163.5 Z"/></g>
<g><path style="opacity:0.337" fill="#e4d7ad" d="M 31.5,167.5 C 28.2366,170.583 24.7366,173.583 21,176.5C 20.5172,177.448 20.3505,178.448 20.5,179.5C 19.2921,180.234 17.9587,180.567 16.5,180.5C 19.9471,174.387 24.9471,170.054 31.5,167.5 Z"/></g>
<g><path style="opacity:1" fill="#dfc46e" d="M 244.5,184.5 C 240.393,185.15 236.893,184.15 234,181.5C 231,181.833 228,182.167 225,182.5C 224.667,181.833 224.333,181.167 224,180.5C 222.913,182.932 222.413,182.598 222.5,179.5C 235.166,178.539 247.833,177.539 260.5,176.5C 260.33,175.178 260.663,174.011 261.5,173C 260.263,172.768 259.263,172.268 258.5,171.5C 264.299,171.488 269.466,171.155 274,170.5C 277.667,171.167 281.333,171.833 285,172.5C 288.221,171.905 292.055,171.738 296.5,172C 297.167,172.333 297.833,172.667 298.5,173C 296.1,173.186 293.766,173.686 291.5,174.5C 295.284,176.447 299.284,177.78 303.5,178.5C 300.833,179.167 298.167,179.833 295.5,180.5C 295.846,181.696 296.346,181.696 297,180.5C 297.483,181.448 297.649,182.448 297.5,183.5C 279.852,184.398 262.185,184.731 244.5,184.5 Z"/></g>
<g><path style="opacity:1" fill="#f0d47c" d="M 84.5,163.5 C 98.8333,163.5 113.167,163.5 127.5,163.5C 132.5,163.5 137.5,163.5 142.5,163.5C 155.5,163.5 168.5,163.5 181.5,163.5C 187.653,164.328 193.987,164.828 200.5,165C 196.833,165.333 193.167,165.667 189.5,166C 194.13,166.372 198.797,167.039 203.5,168C 204.357,168.689 205.023,169.522 205.5,170.5C 205.154,171.696 204.654,171.696 204,170.5C 204.086,172.943 205.419,174.61 208,175.5C 210.333,175.167 212.667,174.833 215,174.5C 217.805,175.467 220.305,176.3 222.5,177C 198.167,177.333 173.833,177.667 149.5,178C 150.167,178.333 150.833,178.667 151.5,179C 172.807,179.539 194.14,180.039 215.5,180.5C 215.5,181.833 215.5,183.167 215.5,184.5C 210.156,184.666 204.823,184.499 199.5,184C 196.97,182.578 194.303,182.245 191.5,183C 192.833,183.333 194.167,183.667 195.5,184C 162.167,184.667 128.833,184.667 95.5,184C 103.521,183.832 111.521,183.332 119.5,182.5C 109.884,181.14 100.217,180.307 90.5,180C 105.35,179.224 120.183,179.391 135,180.5C 137.944,180.278 140.777,179.611 143.5,178.5C 130.167,177.833 116.833,177.167 103.5,176.5C 99.8249,175.944 96.3249,174.944 93,173.5C 90,173.833 87,174.167 84,174.5C 83.1207,171.654 81.4541,170.987 79,172.5C 78.5,172 78,171.5 77.5,171C 81.4213,170.797 85.2546,170.297 89,169.5C 89.8926,170.081 90.8926,170.415 92,170.5C 94.1773,168.949 96.6773,167.949 99.5,167.5C 105.482,168.475 111.482,168.642 117.5,168C 112.418,166.718 107.251,165.885 102,165.5C 95.5575,165.418 89.0575,165.751 82.5,166.5C 73.5198,165.751 64.5198,165.251 55.5,165C 65.342,164.83 75.0087,164.33 84.5,163.5 Z"/></g>
<g><path style="opacity:0.319" fill="#e8d79a" d="M 244.5,185.5 C 271.833,185.5 299.167,185.5 326.5,185.5C 326.5,186.167 326.5,186.833 326.5,187.5C 233.499,187.333 140.499,187.5 47.5,188C 45.3716,188.655 43.3716,189.489 41.5,190.5C 41.5271,188.801 42.1938,187.467 43.5,186.5C 110.331,185.501 177.331,185.168 244.5,185.5 Z"/></g>
<g><path style="opacity:0.604" fill="#d1c179" d="M 415.5,185.5 C 416.345,186.671 417.011,188.005 417.5,189.5C 410.72,187.144 403.72,186.144 396.5,186.5C 373.175,187.376 349.842,187.709 326.5,187.5C 326.5,186.833 326.5,186.167 326.5,185.5C 343.167,185.5 359.833,185.5 376.5,185.5C 389.5,184.167 402.5,184.167 415.5,185.5 Z"/></g>
<g><path style="opacity:0.51" fill="#ddcc99" d="M 16.5,180.5 C 15.7077,184.134 14.2077,187.467 12,190.5C 11.3292,191.252 10.4959,191.586 9.5,191.5C 10.6571,187.024 12.9905,183.358 16.5,180.5 Z"/></g>
<g><path style="opacity:1" fill="#c9ae55" d="M 383.5,163.5 C 391.833,163.5 400.167,163.5 408.5,163.5C 413.157,164.497 417.824,165.497 422.5,166.5C 424.575,168.83 427.242,169.997 430.5,170C 434.386,175.718 439.386,180.218 445.5,183.5C 448.039,189.959 450.206,196.626 452,203.5C 452.667,207.833 452.667,212.167 452,216.5C 449.713,227.225 444.88,236.558 437.5,244.5C 435.323,244.586 433.323,245.253 431.5,246.5C 426.794,244.191 421.794,242.858 416.5,242.5C 418.075,241.554 419.742,241.554 421.5,242.5C 423.029,242.471 424.196,241.804 425,240.5C 427.333,241.167 429.667,241.833 432,242.5C 432.333,242.167 432.667,241.833 433,241.5C 432.287,239.341 431.62,237.007 431,234.5C 428.416,237.545 425.25,239.045 421.5,239C 424.304,236.399 423.971,234.899 420.5,234.5C 420.5,233.5 420.5,232.5 420.5,231.5C 422.833,232.167 425.167,232.833 427.5,233.5C 427.386,231.282 426.72,229.282 425.5,227.5C 430.738,220.685 431.738,213.352 428.5,205.5C 428.5,204.833 428.5,204.167 428.5,203.5C 428.501,195.845 424.834,191.178 417.5,189.5C 417.011,188.005 416.345,186.671 415.5,185.5C 415.38,184.414 414.713,183.747 413.5,183.5C 410.064,182.808 406.73,181.808 403.5,180.5C 404.025,179.808 404.692,179.308 405.5,179C 397.492,178.03 389.492,177.197 381.5,176.5C 380.479,175.998 380.312,175.332 381,174.5C 383.333,174.833 385.667,175.167 388,175.5C 388.551,173.647 387.885,172.313 386,171.5C 384.927,172.28 383.76,172.113 382.5,171C 388.153,169.305 393.819,167.805 399.5,166.5C 388.181,165.668 376.848,165.168 365.5,165C 371.681,164.828 377.681,164.328 383.5,163.5 Z"/></g>
<g><path style="opacity:1" fill="#dec36d" d="M 20.5,179.5 C 20.16,181.679 19.16,183.512 17.5,185C 18.7659,185.309 19.9326,185.809 21,186.5C 21.3333,186.167 21.6667,185.833 22,185.5C 23.7911,187.413 25.7911,189.08 28,190.5C 29.9463,186.95 32.4463,186.617 35.5,189.5C 37.4255,186.828 40.0921,185.828 43.5,186.5C 42.1938,187.467 41.5271,188.801 41.5,190.5C 40.1266,190.343 38.7932,190.51 37.5,191C 32.3347,195.435 29.0014,200.768 27.5,207C 29.4817,212.291 30.6484,217.791 31,223.5C 35.0741,227.119 39.2407,230.619 43.5,234C 51.7176,236.344 59.7176,235.844 67.5,232.5C 68.8333,232.5 70.1667,232.5 71.5,232.5C 72.2598,235.157 73.7598,236.157 76,235.5C 77.4866,236.155 78.6533,237.155 79.5,238.5C 77.8361,239.223 76.1694,238.89 74.5,237.5C 73.1667,238.5 73.1667,239.5 74.5,240.5C 77.2802,241.195 79.9469,242.195 82.5,243.5C 84.1694,242.11 85.8361,241.777 87.5,242.5C 86.675,243.386 85.675,243.719 84.5,243.5C 84.5,244.833 84.5,246.167 84.5,247.5C 83.1667,247.5 81.8333,247.5 80.5,247.5C 80.5,248.833 80.5,250.167 80.5,251.5C 76.1795,253.661 71.5129,255.161 66.5,256C 58.6876,256.877 51.0209,257.711 43.5,258.5C 42.8333,258.5 42.5,258.167 42.5,257.5C 38.3892,253.534 33.3892,251.201 27.5,250.5C 25.5812,247.681 23.4145,245.014 21,242.5C 20.5172,241.552 20.3505,240.552 20.5,239.5C 19.1667,239.5 17.8333,239.5 16.5,239.5C 16.6567,238.127 16.49,236.793 16,235.5C 14.4878,234.743 13.1545,233.743 12,232.5C 10.0567,227.669 8.72338,222.669 8,217.5C 7.61742,216.944 7.11742,216.611 6.5,216.5C 6.5,215.833 6.5,215.167 6.5,214.5C 7.03315,206.768 8.03315,199.102 9.5,191.5C 10.4959,191.586 11.3292,191.252 12,190.5C 14.2077,187.467 15.7077,184.134 16.5,180.5C 17.9587,180.567 19.2921,180.234 20.5,179.5 Z"/></g>
<g><path style="opacity:0.8" fill="#cbbb8e" d="M 417.5,189.5 C 424.834,191.178 428.501,195.845 428.5,203.5C 425.787,198.068 422.12,193.401 417.5,189.5 Z"/></g>
<g><path style="opacity:0.387" fill="#e5d6ac" d="M 102.5,201.5 C 94.9196,200.534 87.253,200.201 79.5,200.5C 79.6659,205.511 79.4993,210.511 79,215.5C 78.7216,216.416 78.2216,217.082 77.5,217.5C 77.7495,214.998 78.0828,212.498 78.5,210C 77.7243,206.511 77.0577,203.011 76.5,199.5C 84.4647,198.431 92.4647,198.264 100.5,199C 101.756,199.417 102.423,200.25 102.5,201.5 Z"/></g>
<g><path style="opacity:0.456" fill="#e5d4a4" d="M 223.5,460.5 C 222.505,448.345 222.171,436.011 222.5,423.5C 222.5,396.5 222.5,369.5 222.5,342.5C 222.5,329.833 222.5,317.167 222.5,304.5C 222.5,269.833 222.5,235.167 222.5,200.5C 197.167,200.5 171.833,200.5 146.5,200.5C 139.646,200.176 132.979,200.509 126.5,201.5C 125.336,229.997 125.17,258.664 126,287.5C 132.42,293.947 139.587,299.281 147.5,303.5C 149.944,306.264 151.944,309.264 153.5,312.5C 143.873,304.711 134.373,296.711 125,288.5C 124.167,258.828 124.333,229.161 125.5,199.5C 157.833,198.167 190.167,198.167 222.5,199.5C 223.5,286.497 223.833,373.497 223.5,460.5 Z M 153.5,227.5 C 167.167,227.5 180.833,227.5 194.5,227.5C 194.667,255.169 194.5,282.835 194,310.5C 192.961,309.29 191.794,308.29 190.5,307.5C 178.849,296.52 166.849,285.853 154.5,275.5C 154.167,275.5 153.833,275.5 153.5,275.5C 153.5,259.5 153.5,243.5 153.5,227.5 Z"/></g>
<g><path style="opacity:0.977" fill="#e1c981" d="M 102.5,201.5 C 102.833,202.167 103.167,202.833 103.5,203.5C 102.167,203.5 101.5,204.167 101.5,205.5C 100.596,204.791 100.263,203.791 100.5,202.5C 94.1318,202.17 87.7985,202.504 81.5,203.5C 80.7174,208.447 80.2174,213.447 80,218.5C 76.5439,222.789 73.7105,227.456 71.5,232.5C 70.1667,232.5 68.8333,232.5 67.5,232.5C 68.1667,231.5 68.8333,230.5 69.5,229.5C 73.1846,226.117 75.8513,222.117 77.5,217.5C 78.2216,217.082 78.7216,216.416 79,215.5C 79.4993,210.511 79.6659,205.511 79.5,200.5C 87.253,200.201 94.9196,200.534 102.5,201.5 Z"/></g>
<g><path style="opacity:1" fill="#d5be7d" d="M 361.5,198.5 C 368.588,198.205 375.588,198.538 382.5,199.5C 380.123,205.768 380.123,211.768 382.5,217.5C 383.773,219.713 384.773,222.046 385.5,224.5C 384.504,224.586 383.671,224.252 383,223.5C 382.163,221.156 380.829,219.156 379,217.5C 379.435,212.15 379.268,206.817 378.5,201.5C 376.417,203.604 374.083,203.938 371.5,202.5C 370.148,203.518 369.148,204.851 368.5,206.5C 367.833,204.5 367.167,202.5 366.5,200.5C 364.253,201.374 361.92,201.708 359.5,201.5C 360.263,200.732 361.263,200.232 362.5,200C 361.944,199.617 361.611,199.117 361.5,198.5 Z"/></g>
<g><path style="opacity:1" fill="#f1d47c" d="M 146.5,200.5 C 147.772,201.434 149.272,202.101 151,202.5C 168.784,201.557 186.117,201.223 203,201.5C 205.405,202.274 207.905,202.774 210.5,203C 206.833,203.333 203.167,203.667 199.5,204C 205.021,205.981 210.354,205.815 215.5,203.5C 216.519,204.687 217.686,205.687 219,206.5C 220.107,210.888 220.607,215.388 220.5,220C 219.187,232.834 219.187,245.667 220.5,258.5C 220.724,263.5 220.057,268.333 218.5,273C 219.394,276.776 219.728,280.61 219.5,284.5C 218.883,284.389 218.383,284.056 218,283.5C 216.844,287.418 216.344,291.418 216.5,295.5C 215.325,295.719 214.325,295.386 213.5,294.5C 210.219,288.423 208.552,281.756 208.5,274.5C 207.833,275.5 207.167,276.5 206.5,277.5C 205.782,273.445 204.449,270.111 202.5,267.5C 201.838,279.005 201.338,290.672 201,302.5C 199.989,303.337 198.822,303.67 197.5,303.5C 197.831,281.993 197.497,260.66 196.5,239.5C 196.451,236.626 196.784,233.792 197.5,231C 197.357,228.849 196.357,227.182 194.5,226C 181.122,225.815 167.788,225.315 154.5,224.5C 153.614,225.325 153.281,226.325 153.5,227.5C 152.833,227.5 152.167,227.5 151.5,227.5C 150.057,226.665 149.057,225.332 148.5,223.5C 147.667,239.156 147.167,254.823 147,270.5C 145.869,271.604 145.035,271.271 144.5,269.5C 145.442,258.39 145.775,247.39 145.5,236.5C 145.281,235.062 144.781,233.729 144,232.5C 143.517,233.448 143.351,234.448 143.5,235.5C 140.612,235.78 139.112,234.447 139,231.5C 137.202,229.028 134.868,227.361 132,226.5C 131.588,224.003 130.422,222.003 128.5,220.5C 127.505,226.128 127.171,231.794 127.5,237.5C 126.505,225.678 126.172,213.678 126.5,201.5C 132.979,200.509 139.646,200.176 146.5,200.5 Z"/></g>
<g><path style="opacity:0.298" fill="#d9c89a" d="M 9.5,191.5 C 8.03315,199.102 7.03315,206.768 6.5,214.5C 5.84182,213.207 5.50848,211.707 5.5,210C 5.66195,203.443 6.99528,197.276 9.5,191.5 Z"/></g>
<g><path style="opacity:1" fill="#e5ca74" d="M 101.5,205.5 C 102.973,212.793 102.307,219.959 99.5,227C 99.5699,227.765 99.9033,228.265 100.5,228.5C 100.5,229.167 100.167,229.5 99.5,229.5C 96.8443,232.999 93.8443,236.333 90.5,239.5C 89.2319,241.304 88.5652,243.304 88.5,245.5C 86.8007,245.527 85.4674,246.194 84.5,247.5C 84.5,246.167 84.5,244.833 84.5,243.5C 85.675,243.719 86.675,243.386 87.5,242.5C 85.8361,241.777 84.1694,242.11 82.5,243.5C 79.9469,242.195 77.2802,241.195 74.5,240.5C 73.1667,239.5 73.1667,238.5 74.5,237.5C 76.1694,238.89 77.8361,239.223 79.5,238.5C 78.6533,237.155 77.4866,236.155 76,235.5C 73.7598,236.157 72.2598,235.157 71.5,232.5C 73.7105,227.456 76.5439,222.789 80,218.5C 80.2174,213.447 80.7174,208.447 81.5,203.5C 87.7985,202.504 94.1318,202.17 100.5,202.5C 100.263,203.791 100.596,204.791 101.5,205.5 Z"/></g>
<g><path style="opacity:0.059" fill="#e6d7a8" d="M 103.5,203.5 C 104.042,212.07 103.042,220.403 100.5,228.5C 99.9033,228.265 99.5699,227.765 99.5,227C 102.307,219.959 102.973,212.793 101.5,205.5C 101.5,204.167 102.167,203.5 103.5,203.5 Z"/></g>
<g><path style="opacity:1" fill="#d6ba65" d="M 385.5,224.5 C 385.261,226.467 385.594,228.301 386.5,230C 390.253,231.114 393.92,232.281 397.5,233.5C 397.833,233.5 398.167,233.5 398.5,233.5C 405.107,236.231 411.774,235.731 418.5,232C 419.381,231.292 420.047,230.458 420.5,229.5C 422.554,229.635 424.221,228.968 425.5,227.5C 426.72,229.282 427.386,231.282 427.5,233.5C 425.167,232.833 422.833,232.167 420.5,231.5C 420.5,232.5 420.5,233.5 420.5,234.5C 423.971,234.899 424.304,236.399 421.5,239C 425.25,239.045 428.416,237.545 431,234.5C 431.62,237.007 432.287,239.341 433,241.5C 432.667,241.833 432.333,242.167 432,242.5C 429.667,241.833 427.333,241.167 425,240.5C 424.196,241.804 423.029,242.471 421.5,242.5C 419.742,241.554 418.075,241.554 416.5,242.5C 421.794,242.858 426.794,244.191 431.5,246.5C 433.323,245.253 435.323,244.586 437.5,244.5C 437.5,245.167 437.5,245.833 437.5,246.5C 433.96,247.696 430.626,249.363 427.5,251.5C 423.847,252.806 420.181,254.139 416.5,255.5C 407.911,256.979 399.411,256.645 391,254.5C 389.187,251.96 386.687,250.96 383.5,251.5C 379.58,250.303 376.08,248.303 373,245.5C 372.991,241.822 371.157,239.655 367.5,239C 363.363,234.394 360.363,229.227 358.5,223.5C 357.833,223.5 357.5,223.167 357.5,222.5C 358.407,218.676 358.407,214.676 357.5,210.5C 357.447,207.215 358.114,204.215 359.5,201.5C 361.92,201.708 364.253,201.374 366.5,200.5C 367.167,202.5 367.833,204.5 368.5,206.5C 369.148,204.851 370.148,203.518 371.5,202.5C 374.083,203.938 376.417,203.604 378.5,201.5C 379.268,206.817 379.435,212.15 379,217.5C 380.829,219.156 382.163,221.156 383,223.5C 383.671,224.252 384.504,224.586 385.5,224.5 Z"/></g>
<g><path style="opacity:0.122" fill="#d1c49b" d="M 382.5,199.5 C 381.897,205.307 381.897,211.307 382.5,217.5C 380.123,211.768 380.123,205.768 382.5,199.5 Z"/></g>
<g><path style="opacity:0.198" fill="#d2c398" d="M 361.5,198.5 C 361.611,199.117 361.944,199.617 362.5,200C 361.263,200.232 360.263,200.732 359.5,201.5C 358.114,204.215 357.447,207.215 357.5,210.5C 358.407,214.676 358.407,218.676 357.5,222.5C 356.403,215.216 356.237,207.882 357,200.5C 358.11,198.963 359.61,198.297 361.5,198.5 Z"/></g>
<g><path style="opacity:1" fill="#eacc78" d="M 151.5,227.5 C 151.333,242.837 151.5,258.17 152,273.5C 152.278,274.416 152.778,275.082 153.5,275.5C 153.833,275.5 154.167,275.5 154.5,275.5C 154.833,276.833 155.167,278.167 155.5,279.5C 154.292,278.766 152.959,278.433 151.5,278.5C 151.753,276.173 151.086,274.173 149.5,272.5C 148.815,274.781 148.649,277.114 149,279.5C 148.125,276.785 146.292,275.452 143.5,275.5C 143.666,269.491 143.499,263.491 143,257.5C 141.409,254.4 138.909,252.733 135.5,252.5C 135.5,251.5 135.5,250.5 135.5,249.5C 132.881,249.768 130.381,249.435 128,248.5C 127.501,244.848 127.335,241.182 127.5,237.5C 127.171,231.794 127.505,226.128 128.5,220.5C 130.422,222.003 131.588,224.003 132,226.5C 134.868,227.361 137.202,229.028 139,231.5C 139.112,234.447 140.612,235.78 143.5,235.5C 143.351,234.448 143.517,233.448 144,232.5C 144.781,233.729 145.281,235.062 145.5,236.5C 145.775,247.39 145.442,258.39 144.5,269.5C 145.035,271.271 145.869,271.604 147,270.5C 147.167,254.823 147.667,239.156 148.5,223.5C 149.057,225.332 150.057,226.665 151.5,227.5 Z"/></g>
<g><path style="opacity:0.863" fill="#cab97d" d="M 445.5,183.5 C 458.865,205.359 457.032,226.025 440,245.5C 439.329,246.252 438.496,246.586 437.5,246.5C 437.5,245.833 437.5,245.167 437.5,244.5C 444.88,236.558 449.713,227.225 452,216.5C 452.667,212.167 452.667,207.833 452,203.5C 450.206,196.626 448.039,189.959 445.5,183.5 Z"/></g>
<g><path style="opacity:0.854" fill="#eed383" d="M 146.5,200.5 C 171.833,200.5 197.167,200.5 222.5,200.5C 222.5,235.167 222.5,269.833 222.5,304.5C 221.833,303.833 221.167,303.167 220.5,302.5C 219.324,296.468 218.991,290.468 219.5,284.5C 219.728,280.61 219.394,276.776 218.5,273C 220.057,268.333 220.724,263.5 220.5,258.5C 219.187,245.667 219.187,232.834 220.5,220C 220.607,215.388 220.107,210.888 219,206.5C 217.686,205.687 216.519,204.687 215.5,203.5C 210.354,205.815 205.021,205.981 199.5,204C 203.167,203.667 206.833,203.333 210.5,203C 207.905,202.774 205.405,202.274 203,201.5C 186.117,201.223 168.784,201.557 151,202.5C 149.272,202.101 147.772,201.434 146.5,200.5 Z"/></g>
<g><path style="opacity:0.886" fill="#e6d193" d="M 196.5,239.5 C 196.188,261.879 196.521,284.212 197.5,306.5C 197.839,311.241 195.839,312.574 191.5,310.5C 190.873,309.583 190.539,308.583 190.5,307.5C 191.794,308.29 192.961,309.29 194,310.5C 194.5,282.835 194.667,255.169 194.5,227.5C 180.833,227.5 167.167,227.5 153.5,227.5C 153.281,226.325 153.614,225.325 154.5,224.5C 167.788,225.315 181.122,225.815 194.5,226C 196.357,227.182 197.357,228.849 197.5,231C 196.784,233.792 196.451,236.626 196.5,239.5 Z"/></g>
<g><path style="opacity:0.859" fill="#cab97d" d="M 428.5,205.5 C 431.738,213.352 430.738,220.685 425.5,227.5C 424.221,228.968 422.554,229.635 420.5,229.5C 427.139,222.875 429.806,214.875 428.5,205.5 Z"/></g>
<g><path style="opacity:0.886" fill="#dbc88f" d="M 41.5,190.5 C 30.4544,200.033 28.2877,211.367 35,224.5C 45.2703,235.191 56.7703,236.857 69.5,229.5C 68.8333,230.5 68.1667,231.5 67.5,232.5C 59.7176,235.844 51.7176,236.344 43.5,234C 39.2407,230.619 35.0741,227.119 31,223.5C 30.6484,217.791 29.4817,212.291 27.5,207C 29.0014,200.768 32.3347,195.435 37.5,191C 38.7932,190.51 40.1266,190.343 41.5,190.5 Z"/></g>
<g><path style="opacity:0.357" fill="#e1d098" d="M 99.5,229.5 C 97.3118,235.885 93.6451,241.218 88.5,245.5C 88.5652,243.304 89.2319,241.304 90.5,239.5C 93.8443,236.333 96.8443,232.999 99.5,229.5 Z"/></g>
<g><path style="opacity:0.882" fill="#d5c188" d="M 385.5,224.5 C 389.181,227.998 393.181,230.998 397.5,233.5C 393.92,232.281 390.253,231.114 386.5,230C 385.594,228.301 385.261,226.467 385.5,224.5 Z"/></g>
<g><path style="opacity:0.186" fill="#d2c093" d="M 420.5,229.5 C 420.047,230.458 419.381,231.292 418.5,232C 411.774,235.731 405.107,236.231 398.5,233.5C 406.337,234.866 413.671,233.532 420.5,229.5 Z"/></g>
<g><path style="opacity:0.975" fill="#d6c388" d="M 6.5,216.5 C 7.11742,216.611 7.61742,216.944 8,217.5C 8.72338,222.669 10.0567,227.669 12,232.5C 13.1545,233.743 14.4878,234.743 16,235.5C 16.49,236.793 16.6567,238.127 16.5,239.5C 17.8333,239.5 19.1667,239.5 20.5,239.5C 20.3505,240.552 20.5172,241.552 21,242.5C 23.4145,245.014 25.5812,247.681 27.5,250.5C 17.1705,244.315 10.3372,235.315 7,223.5C 6.50335,221.19 6.33669,218.857 6.5,216.5 Z"/></g>
<g><path style="opacity:1" fill="#e2c771" d="M 126.5,201.5 C 126.172,213.678 126.505,225.678 127.5,237.5C 127.335,241.182 127.501,244.848 128,248.5C 130.381,249.435 132.881,249.768 135.5,249.5C 135.5,250.5 135.5,251.5 135.5,252.5C 138.909,252.733 141.409,254.4 143,257.5C 143.499,263.491 143.666,269.491 143.5,275.5C 146.292,275.452 148.125,276.785 149,279.5C 148.649,277.114 148.815,274.781 149.5,272.5C 151.086,274.173 151.753,276.173 151.5,278.5C 152.959,278.433 154.292,278.766 155.5,279.5C 159.382,280.276 161.715,282.609 162.5,286.5C 164.904,287.008 165.571,288.175 164.5,290C 166.556,290.311 168.556,290.811 170.5,291.5C 171.386,292.325 171.719,293.325 171.5,294.5C 173.783,294.608 175.783,295.441 177.5,297C 180.698,300.112 183.698,303.445 186.5,307C 187.793,307.49 189.127,307.657 190.5,307.5C 190.539,308.583 190.873,309.583 191.5,310.5C 195.839,312.574 197.839,311.241 197.5,306.5C 198.268,307.263 198.768,308.263 199,309.5C 200.343,308.786 201.676,309.12 203,310.5C 204.884,313.444 206.384,316.444 207.5,319.5C 208.822,319.33 209.989,319.663 211,320.5C 211.452,326.765 212.785,332.765 215,338.5C 215.101,333.054 215.768,327.721 217,322.5C 217.862,324.087 218.529,325.754 219,327.5C 220.37,319.236 220.87,310.903 220.5,302.5C 221.167,303.167 221.833,303.833 222.5,304.5C 222.5,317.167 222.5,329.833 222.5,342.5C 221.686,344.631 221.186,346.964 221,349.5C 221.033,374.249 219.7,398.916 217,423.5C 215.974,418.215 215.307,412.882 215,407.5C 214,406.5 213,405.5 212,404.5C 211.808,406.577 211.308,408.577 210.5,410.5C 208.866,410.032 207.7,409.032 207,407.5C 205.884,417.946 204.551,417.946 203,407.5C 202.667,407.833 202.333,408.167 202,408.5C 201.667,389.833 201.333,371.167 201,352.5C 199.078,350.105 197.578,347.439 196.5,344.5C 194.589,343.523 192.589,342.857 190.5,342.5C 189.626,340.31 187.959,339.31 185.5,339.5C 185.64,337.876 184.973,336.71 183.5,336C 181.19,335.503 178.857,335.337 176.5,335.5C 176.509,337.308 176.009,338.975 175,340.5C 168.038,347.554 160.538,353.887 152.5,359.5C 152.461,358.417 152.127,357.417 151.5,356.5C 153.2,354.932 154.534,353.099 155.5,351C 151.508,349.823 149.842,351.323 150.5,355.5C 147.5,355.833 146.167,354.5 146.5,351.5C 144.738,351.357 143.071,351.691 141.5,352.5C 141.167,352 140.833,351.5 140.5,351C 141.756,349.521 142.756,347.855 143.5,346C 143.045,344.276 142.212,342.776 141,341.5C 140.617,342.056 140.117,342.389 139.5,342.5C 139.756,340.224 141.09,339.057 143.5,339C 142.269,337.817 142.269,336.651 143.5,335.5C 148.24,333.094 151.574,329.427 153.5,324.5C 157.674,323.929 159.674,321.429 159.5,317C 158.762,313.799 156.762,312.299 153.5,312.5C 151.944,309.264 149.944,306.264 147.5,303.5C 139.587,299.281 132.42,293.947 126,287.5C 125.17,258.664 125.336,229.997 126.5,201.5 Z"/></g>
<g><path style="opacity:0.996" fill="#d5c58c" d="M 358.5,223.5 C 360.363,229.227 363.363,234.394 367.5,239C 371.157,239.655 372.991,241.822 373,245.5C 376.08,248.303 379.58,250.303 383.5,251.5C 386.571,253.898 389.905,255.898 393.5,257.5C 377.318,253.491 365.818,243.824 359,228.5C 358.506,226.866 358.34,225.199 358.5,223.5 Z"/></g>
<g><path style="opacity:0.533" fill="#d2c28b" d="M 27.5,250.5 C 33.3892,251.201 38.3892,253.534 42.5,257.5C 36.6152,256.881 31.6152,254.547 27.5,250.5 Z"/></g>
<g><path style="opacity:0.169" fill="#d2c497" d="M 437.5,246.5 C 432.581,251.715 426.581,255.382 419.5,257.5C 422.191,255.684 424.858,253.684 427.5,251.5C 430.626,249.363 433.96,247.696 437.5,246.5 Z"/></g>
<g><path style="opacity:1" fill="#d1bc7a" d="M 383.5,251.5 C 386.687,250.96 389.187,251.96 391,254.5C 399.411,256.645 407.911,256.979 416.5,255.5C 420.181,254.139 423.847,252.806 427.5,251.5C 424.858,253.684 422.191,255.684 419.5,257.5C 410.697,260.091 402.031,260.091 393.5,257.5C 389.905,255.898 386.571,253.898 383.5,251.5 Z"/></g>
<g><path style="opacity:0.611" fill="#d7c68e" d="M 88.5,245.5 C 83.7293,251.064 77.7293,254.897 70.5,257C 61.6104,259.618 52.6104,260.118 43.5,258.5C 51.0209,257.711 58.6876,256.877 66.5,256C 71.5129,255.161 76.1795,253.661 80.5,251.5C 80.5,250.167 80.5,248.833 80.5,247.5C 81.8333,247.5 83.1667,247.5 84.5,247.5C 85.4674,246.194 86.8007,245.527 88.5,245.5 Z"/></g>
<g><path style="opacity:0.553" fill="#e6d087" d="M 265.5,228.5 C 265.615,256.529 265.448,284.529 265,312.5C 265.671,313.252 266.504,313.586 267.5,313.5C 264.182,314.861 262.849,313.528 263.5,309.5C 264.463,284.182 264.796,258.849 264.5,233.5C 264.216,231.585 264.549,229.919 265.5,228.5 Z"/></g>
<g><path style="opacity:0.431" fill="#ebddaa" d="M 151.5,227.5 C 152.167,227.5 152.833,227.5 153.5,227.5C 153.5,243.5 153.5,259.5 153.5,275.5C 152.778,275.082 152.278,274.416 152,273.5C 151.5,258.17 151.333,242.837 151.5,227.5 Z"/></g>
<g><path style="opacity:1" fill="#f0d37b" d="M 264.5,233.5 C 264.796,258.849 264.463,284.182 263.5,309.5C 262.849,313.528 264.182,314.861 267.5,313.5C 269.428,311.526 271.761,310.026 274.5,309C 277.087,306.087 279.254,302.92 281,299.5C 283.463,298.968 285.297,297.634 286.5,295.5C 289.525,294.235 292.358,292.568 295,290.5C 297.65,294.428 300.65,298.095 304,301.5C 304.309,302.766 304.809,303.933 305.5,305C 303.068,306.087 303.402,306.587 306.5,306.5C 306.5,307.833 306.5,309.167 306.5,310.5C 304.604,312.043 302.771,313.709 301,315.5C 300.156,317.463 300.656,318.796 302.5,319.5C 302.833,319.5 303.167,319.5 303.5,319.5C 304.15,321.435 304.483,323.435 304.5,325.5C 309.969,326.752 313.635,330.085 315.5,335.5C 318.172,337.537 320.839,339.537 323.5,341.5C 322.481,343.54 322.481,345.54 323.5,347.5C 325.224,346.339 326.89,346.505 328.5,348C 328.5,349.333 328.5,350.667 328.5,352C 330.198,351.503 331.865,351.67 333.5,352.5C 334.666,376.826 334.833,401.16 334,425.5C 333,426.5 332,427.5 331,428.5C 330.138,426.913 329.471,425.246 329,423.5C 328.692,424.308 328.192,424.975 327.5,425.5C 325.49,423.829 323.157,423.162 320.5,423.5C 320.735,420.188 319.735,419.355 317.5,421C 318.024,423.413 319.024,425.58 320.5,427.5C 319.833,430.833 317.833,432.167 314.5,431.5C 314.534,428.801 313.867,426.301 312.5,424C 314.726,422.38 316.06,420.214 316.5,417.5C 315.13,409.615 315.463,401.781 317.5,394C 317.858,389.528 316.192,386.028 312.5,383.5C 311.657,377.185 310.99,370.852 310.5,364.5C 310.415,362.667 309.748,361.334 308.5,360.5C 306.544,359.508 304.544,358.508 302.5,357.5C 301.278,353.275 298.612,350.275 294.5,348.5C 293.289,346.578 291.956,344.745 290.5,343C 287.354,341.343 284.354,339.509 281.5,337.5C 281.167,337.5 280.833,337.5 280.5,337.5C 277.543,336.465 275.209,337.465 273.5,340.5C 270.07,340.893 266.904,340.227 264,338.5C 263.517,337.552 263.351,336.552 263.5,335.5C 260.856,335.16 258.523,335.827 256.5,337.5C 256.167,337 255.833,336.5 255.5,336C 255.976,332.997 255.976,329.83 255.5,326.5C 255.662,323.511 256.329,320.678 257.5,318C 256.407,316.183 255.407,316.35 254.5,318.5C 249.95,319.8 245.45,319.8 241,318.5C 240.355,296.17 239.855,273.837 239.5,251.5C 239.31,238.111 239.977,224.778 241.5,211.5C 243.659,212.785 244.326,214.452 243.5,216.5C 245.323,217.491 246.823,218.824 248,220.5C 251.446,219.239 253.446,220.572 254,224.5C 254.853,222.875 255.853,222.542 257,223.5C 257.333,225.5 257.667,227.5 258,229.5C 258.497,227.19 258.663,224.857 258.5,222.5C 259.5,222.5 260.5,222.5 261.5,222.5C 261.335,226.182 261.501,229.848 262,233.5C 262.77,234.598 263.603,234.598 264.5,233.5 Z"/></g>
<g><path style="opacity:1" fill="#eed17c" d="M 309.5,228.5 C 310.222,240.353 311.055,252.353 312,264.5C 312.333,264.833 312.667,265.167 313,265.5C 313.333,259.167 313.667,252.833 314,246.5C 316.783,254.194 318.45,262.194 319,270.5C 319.718,269.549 320.551,269.383 321.5,270C 321.132,271.473 321.632,272.973 323,274.5C 325.14,275.728 326.807,277.395 328,279.5C 328.333,277.833 328.667,276.167 329,274.5C 329.368,275.91 330.201,276.91 331.5,277.5C 332.308,275.577 332.808,273.577 333,271.5C 333.183,274.365 333.683,277.031 334.5,279.5C 334.868,282.533 334.202,285.2 332.5,287.5C 331.549,288.919 331.216,290.585 331.5,292.5C 327.46,296.542 323.127,300.209 318.5,303.5C 317.127,303.343 315.793,303.51 314.5,304C 312.249,306.758 309.582,308.925 306.5,310.5C 306.5,309.167 306.5,307.833 306.5,306.5C 303.402,306.587 303.068,306.087 305.5,305C 304.809,303.933 304.309,302.766 304,301.5C 300.65,298.095 297.65,294.428 295,290.5C 292.358,292.568 289.525,294.235 286.5,295.5C 288.862,292.808 291.196,290.141 293.5,287.5C 293.833,286.5 294.5,285.833 295.5,285.5C 299.283,283.555 302.949,281.389 306.5,279C 307.893,277.829 308.727,276.329 309,274.5C 309.5,259.17 309.667,243.837 309.5,228.5 Z"/></g>
<g><path style="opacity:1" fill="#eacd77" d="M 196.5,239.5 C 197.497,260.66 197.831,281.993 197.5,303.5C 198.822,303.67 199.989,303.337 201,302.5C 201.338,290.672 201.838,279.005 202.5,267.5C 204.449,270.111 205.782,273.445 206.5,277.5C 207.167,276.5 207.833,275.5 208.5,274.5C 208.552,281.756 210.219,288.423 213.5,294.5C 214.325,295.386 215.325,295.719 216.5,295.5C 216.344,291.418 216.844,287.418 218,283.5C 218.383,284.056 218.883,284.389 219.5,284.5C 218.991,290.468 219.324,296.468 220.5,302.5C 220.87,310.903 220.37,319.236 219,327.5C 218.529,325.754 217.862,324.087 217,322.5C 215.768,327.721 215.101,333.054 215,338.5C 212.785,332.765 211.452,326.765 211,320.5C 209.989,319.663 208.822,319.33 207.5,319.5C 206.384,316.444 204.884,313.444 203,310.5C 201.676,309.12 200.343,308.786 199,309.5C 198.768,308.263 198.268,307.263 197.5,306.5C 196.521,284.212 196.188,261.879 196.5,239.5 Z"/></g>
<g><path style="opacity:0.145" fill="#e1d2a4" d="M 331.5,292.5 C 331.216,290.585 331.549,288.919 332.5,287.5C 333.5,287.5 334.5,287.5 335.5,287.5C 335.5,258.5 335.5,229.5 335.5,200.5C 303.329,200.168 271.329,200.502 239.5,201.5C 238.506,245.094 238.172,288.761 238.5,332.5C 238.5,371.167 238.5,409.833 238.5,448.5C 238.829,462.01 238.496,475.344 237.5,488.5C 237.167,392.164 237.5,295.831 238.5,199.5C 270.791,198.341 303.125,198.174 335.5,199C 336.894,199.956 337.561,201.289 337.5,203C 337.018,231.074 336.852,259.241 337,287.5C 335.296,289.373 333.463,291.04 331.5,292.5 Z"/></g>
<g><path style="opacity:1" fill="#e4c972" d="M 256.5,201.5 C 266.04,201.528 275.373,202.028 284.5,203C 279.5,203.333 274.5,203.667 269.5,204C 270.167,204.333 270.833,204.667 271.5,205C 280.833,205.333 290.167,205.667 299.5,206C 298.833,206.333 298.167,206.667 297.5,207C 302.387,209.22 305.887,212.72 308,217.5C 309.079,219.394 310.413,219.727 312,218.5C 312.956,219.579 313.789,220.745 314.5,222C 312.501,224.499 311.667,227.332 312,230.5C 312.333,230.167 312.667,229.833 313,229.5C 313.333,230.833 313.667,232.167 314,233.5C 314.547,230.298 315.547,227.298 317,224.5C 319.512,225.583 322.012,227.416 324.5,230C 325.448,230.483 326.448,230.649 327.5,230.5C 327.334,237.508 327.5,244.508 328,251.5C 328.333,251.167 328.667,250.833 329,250.5C 329.862,252.087 330.529,253.754 331,255.5C 331.667,254.167 332.333,252.833 333,251.5C 334.067,260.804 334.567,270.138 334.5,279.5C 333.683,277.031 333.183,274.365 333,271.5C 332.808,273.577 332.308,275.577 331.5,277.5C 330.201,276.91 329.368,275.91 329,274.5C 328.667,276.167 328.333,277.833 328,279.5C 326.807,277.395 325.14,275.728 323,274.5C 321.632,272.973 321.132,271.473 321.5,270C 320.551,269.383 319.718,269.549 319,270.5C 318.45,262.194 316.783,254.194 314,246.5C 313.667,252.833 313.333,259.167 313,265.5C 312.667,265.167 312.333,264.833 312,264.5C 311.055,252.353 310.222,240.353 309.5,228.5C 309.074,226.715 307.908,225.715 306,225.5C 292.682,226.122 279.515,226.789 266.5,227.5C 266.167,227.5 265.833,227.5 265.5,227.5C 265.414,226.504 265.748,225.671 266.5,225C 268.941,224.964 270.941,224.131 272.5,222.5C 271.294,219.125 269.46,216.125 267,213.5C 264.974,212.142 262.807,211.309 260.5,211C 259.743,209.488 258.743,208.154 257.5,207C 259.5,206.667 261.5,206.333 263.5,206C 256.476,205.831 249.476,205.331 242.5,204.5C 246.713,203.805 250.879,203.139 255,202.5C 256.107,203.712 256.607,203.379 256.5,201.5 Z"/></g>
<g><path style="opacity:0.3" fill="#e3d49a" d="M 309.5,228.5 C 309.667,243.837 309.5,259.17 309,274.5C 308.727,276.329 307.893,277.829 306.5,279C 302.949,281.389 299.283,283.555 295.5,285.5C 299.147,282.189 302.813,278.855 306.5,275.5C 307.499,259.514 307.833,243.514 307.5,227.5C 293.833,227.5 280.167,227.5 266.5,227.5C 279.515,226.789 292.682,226.122 306,225.5C 307.908,225.715 309.074,226.715 309.5,228.5 Z"/></g>
<g><path style="opacity:1" fill="#dec36e" d="M 239.5,201.5 C 271.329,200.502 303.329,200.168 335.5,200.5C 335.5,229.5 335.5,258.5 335.5,287.5C 334.5,287.5 333.5,287.5 332.5,287.5C 334.202,285.2 334.868,282.533 334.5,279.5C 334.567,270.138 334.067,260.804 333,251.5C 332.333,252.833 331.667,254.167 331,255.5C 330.529,253.754 329.862,252.087 329,250.5C 328.667,250.833 328.333,251.167 328,251.5C 327.5,244.508 327.334,237.508 327.5,230.5C 326.448,230.649 325.448,230.483 324.5,230C 322.012,227.416 319.512,225.583 317,224.5C 315.547,227.298 314.547,230.298 314,233.5C 313.667,232.167 313.333,230.833 313,229.5C 312.667,229.833 312.333,230.167 312,230.5C 311.667,227.332 312.501,224.499 314.5,222C 313.789,220.745 312.956,219.579 312,218.5C 310.413,219.727 309.079,219.394 308,217.5C 305.887,212.72 302.387,209.22 297.5,207C 298.167,206.667 298.833,206.333 299.5,206C 290.167,205.667 280.833,205.333 271.5,205C 270.833,204.667 270.167,204.333 269.5,204C 274.5,203.667 279.5,203.333 284.5,203C 275.373,202.028 266.04,201.528 256.5,201.5C 250.833,201.5 245.167,201.5 239.5,201.5 Z"/></g>
<g><path style="opacity:0.392" fill="#e2cf99" d="M 154.5,275.5 C 166.849,285.853 178.849,296.52 190.5,307.5C 189.127,307.657 187.793,307.49 186.5,307C 183.698,303.445 180.698,300.112 177.5,297C 175.783,295.441 173.783,294.608 171.5,294.5C 171.719,293.325 171.386,292.325 170.5,291.5C 168.556,290.811 166.556,290.311 164.5,290C 165.571,288.175 164.904,287.008 162.5,286.5C 161.715,282.609 159.382,280.276 155.5,279.5C 155.167,278.167 154.833,276.833 154.5,275.5 Z"/></g>
<g><path style="opacity:0.31" fill="#eddba8" d="M 318.5,303.5 C 313.94,308.125 308.94,312.291 303.5,316C 302.663,317.011 302.33,318.178 302.5,319.5C 300.656,318.796 300.156,317.463 301,315.5C 302.771,313.709 304.604,312.043 306.5,310.5C 309.582,308.925 312.249,306.758 314.5,304C 315.793,303.51 317.127,303.343 318.5,303.5 Z"/></g>
<g><path style="opacity:0.561" fill="#e9d9a5" d="M 265.5,227.5 C 265.833,227.5 266.167,227.5 266.5,227.5C 266.333,255.169 266.5,282.835 267,310.5C 275.429,302.228 284.263,294.561 293.5,287.5C 291.196,290.141 288.862,292.808 286.5,295.5C 285.297,297.634 283.463,298.968 281,299.5C 279.254,302.92 277.087,306.087 274.5,309C 271.761,310.026 269.428,311.526 267.5,313.5C 266.504,313.586 265.671,313.252 265,312.5C 265.448,284.529 265.615,256.529 265.5,228.5C 265.5,228.167 265.5,227.833 265.5,227.5 Z"/></g>
<g><path style="opacity:0.999" fill="#e9ce79" d="M 239.5,201.5 C 245.167,201.5 250.833,201.5 256.5,201.5C 256.607,203.379 256.107,203.712 255,202.5C 250.879,203.139 246.713,203.805 242.5,204.5C 249.476,205.331 256.476,205.831 263.5,206C 261.5,206.333 259.5,206.667 257.5,207C 258.743,208.154 259.743,209.488 260.5,211C 262.807,211.309 264.974,212.142 267,213.5C 269.46,216.125 271.294,219.125 272.5,222.5C 270.941,224.131 268.941,224.964 266.5,225C 265.748,225.671 265.414,226.504 265.5,227.5C 265.5,227.833 265.5,228.167 265.5,228.5C 264.549,229.919 264.216,231.585 264.5,233.5C 263.603,234.598 262.77,234.598 262,233.5C 261.501,229.848 261.335,226.182 261.5,222.5C 260.5,222.5 259.5,222.5 258.5,222.5C 258.663,224.857 258.497,227.19 258,229.5C 257.667,227.5 257.333,225.5 257,223.5C 255.853,222.542 254.853,222.875 254,224.5C 253.446,220.572 251.446,219.239 248,220.5C 246.823,218.824 245.323,217.491 243.5,216.5C 244.326,214.452 243.659,212.785 241.5,211.5C 239.977,224.778 239.31,238.111 239.5,251.5C 239.855,273.837 240.355,296.17 241,318.5C 245.45,319.8 249.95,319.8 254.5,318.5C 255.407,316.35 256.407,316.183 257.5,318C 256.329,320.678 255.662,323.511 255.5,326.5C 255.976,329.83 255.976,332.997 255.5,336C 255.833,336.5 256.167,337 256.5,337.5C 258.523,335.827 260.856,335.16 263.5,335.5C 263.351,336.552 263.517,337.552 264,338.5C 266.904,340.227 270.07,340.893 273.5,340.5C 270.541,341.993 267.874,343.993 265.5,346.5C 264.501,358.815 264.168,371.149 264.5,383.5C 261.756,374.251 260.256,363.918 260,352.5C 259.946,357.679 259.279,362.679 258,367.5C 257.829,362.136 257.329,356.802 256.5,351.5C 255.281,352.263 254.281,353.263 253.5,354.5C 250.388,353.649 250.054,352.483 252.5,351C 251.874,350.25 251.374,349.416 251,348.5C 247.164,347.233 243.831,345.233 241,342.5C 240.828,349.346 240.328,356.013 239.5,362.5C 239.827,352.319 239.494,342.319 238.5,332.5C 238.172,288.761 238.506,245.094 239.5,201.5 Z"/></g>
<g><path style="opacity:0.922" fill="#dbcb92" d="M 153.5,312.5 C 156.762,312.299 158.762,313.799 159.5,317C 159.674,321.429 157.674,323.929 153.5,324.5C 155.117,322.203 156.783,319.87 158.5,317.5C 156.812,315.812 155.146,314.146 153.5,312.5 Z"/></g>
<g><path style="opacity:0.949" fill="#eddca2" d="M 303.5,319.5 C 313.833,329.5 324.167,339.5 334.5,349.5C 330.842,346.899 327.176,344.232 323.5,341.5C 320.839,339.537 318.172,337.537 315.5,335.5C 313.635,330.085 309.969,326.752 304.5,325.5C 304.483,323.435 304.15,321.435 303.5,319.5 Z"/></g>
<g><path style="opacity:1" fill="#dac687" d="M 153.5,324.5 C 151.574,329.427 148.24,333.094 143.5,335.5C 142.269,336.651 142.269,337.817 143.5,339C 141.09,339.057 139.756,340.224 139.5,342.5C 134.849,344.161 130.849,346.828 127.5,350.5C 126.833,350.833 126.167,351.167 125.5,351.5C 134.173,341.827 143.506,332.827 153.5,324.5 Z"/></g>
<g><path style="opacity:0.255" fill="#e1cda0" d="M 190.5,342.5 C 191.343,344.173 192.676,345.34 194.5,346C 193.944,346.383 193.611,346.883 193.5,347.5C 189.865,344.341 186.198,341.174 182.5,338C 181.5,337.333 180.5,337.333 179.5,338C 171.012,346.3 162.512,354.466 154,362.5C 153.5,369.492 153.334,376.492 153.5,383.5C 152.509,376.687 152.175,369.687 152.5,362.5C 152.5,361.833 152.5,361.167 152.5,360.5C 152.5,360.167 152.5,359.833 152.5,359.5C 160.538,353.887 168.038,347.554 175,340.5C 176.009,338.975 176.509,337.308 176.5,335.5C 178.857,335.337 181.19,335.503 183.5,336C 184.973,336.71 185.64,337.876 185.5,339.5C 187.959,339.31 189.626,340.31 190.5,342.5 Z"/></g>
<g><path style="opacity:0.569" fill="#eadaac" d="M 281.5,337.5 C 284.354,339.509 287.354,341.343 290.5,343C 291.956,344.745 293.289,346.578 294.5,348.5C 298.612,350.275 301.278,353.275 302.5,357.5C 294.915,351.585 287.915,344.918 281.5,337.5 Z"/></g>
<g><path style="opacity:1" fill="#d7ba67" d="M 152.5,359.5 C 152.5,359.833 152.5,360.167 152.5,360.5C 151.883,360.611 151.383,360.944 151,361.5C 150.814,374.242 150.314,386.908 149.5,399.5C 147.329,393.23 146.995,386.73 148.5,380C 148.015,376.135 147.348,372.302 146.5,368.5C 145.672,372.796 145.172,377.129 145,381.5C 144.118,378.211 143.452,374.877 143,371.5C 140.986,369.155 138.653,367.155 136,365.5C 133.049,368.107 131.382,367.441 131,363.5C 129.184,362.257 127.684,362.59 126.5,364.5C 126.283,359.77 126.617,355.103 127.5,350.5C 130.849,346.828 134.849,344.161 139.5,342.5C 140.117,342.389 140.617,342.056 141,341.5C 142.212,342.776 143.045,344.276 143.5,346C 142.756,347.855 141.756,349.521 140.5,351C 140.833,351.5 141.167,352 141.5,352.5C 143.071,351.691 144.738,351.357 146.5,351.5C 146.167,354.5 147.5,355.833 150.5,355.5C 149.842,351.323 151.508,349.823 155.5,351C 154.534,353.099 153.2,354.932 151.5,356.5C 152.127,357.417 152.461,358.417 152.5,359.5 Z"/></g>
<g><path style="opacity:1" fill="#ceb35e" d="M 149.5,399.5 C 148.975,402.858 148.142,406.191 147,409.5C 145.756,406.362 145.089,403.028 145,399.5C 144.026,401.878 143.359,401.544 143,398.5C 142.439,399.022 141.772,399.355 141,399.5C 136.855,396.022 133.022,392.188 129.5,388C 128.552,387.517 127.552,387.351 126.5,387.5C 126.5,379.833 126.5,372.167 126.5,364.5C 127.684,362.59 129.184,362.257 131,363.5C 131.382,367.441 133.049,368.107 136,365.5C 138.653,367.155 140.986,369.155 143,371.5C 143.452,374.877 144.118,378.211 145,381.5C 145.172,377.129 145.672,372.796 146.5,368.5C 147.348,372.302 148.015,376.135 148.5,380C 146.995,386.73 147.329,393.23 149.5,399.5 Z"/></g>
<g><path style="opacity:1" fill="#e1c66f" d="M 264.5,383.5 C 264.5,407.5 264.5,431.5 264.5,455.5C 263.883,455.389 263.383,455.056 263,454.5C 261.991,456.025 261.491,457.692 261.5,459.5C 258.762,460.035 256.928,459.035 256,456.5C 255.667,456.833 255.333,457.167 255,457.5C 256.127,454.112 255.627,450.945 253.5,448C 248.502,448.355 244.336,446.855 241,443.5C 239.616,416.523 239.116,389.523 239.5,362.5C 240.328,356.013 240.828,349.346 241,342.5C 243.831,345.233 247.164,347.233 251,348.5C 251.374,349.416 251.874,350.25 252.5,351C 250.054,352.483 250.388,353.649 253.5,354.5C 254.281,353.263 255.281,352.263 256.5,351.5C 257.329,356.802 257.829,362.136 258,367.5C 259.279,362.679 259.946,357.679 260,352.5C 260.256,363.918 261.756,374.251 264.5,383.5 Z"/></g>
<g><path style="opacity:1" fill="#c7ab59" d="M 152.5,360.5 C 152.5,361.167 152.5,361.833 152.5,362.5C 151.503,380.993 151.17,399.659 151.5,418.5C 149.903,419.737 148.737,421.404 148,423.5C 147.667,421.5 147.333,419.5 147,417.5C 143.278,418.802 140.945,417.469 140,413.5C 138.587,411.586 136.753,410.253 134.5,409.5C 132.921,405.258 130.254,401.925 126.5,399.5C 126.5,395.5 126.5,391.5 126.5,387.5C 127.552,387.351 128.552,387.517 129.5,388C 133.022,392.188 136.855,396.022 141,399.5C 141.772,399.355 142.439,399.022 143,398.5C 143.359,401.544 144.026,401.878 145,399.5C 145.089,403.028 145.756,406.362 147,409.5C 148.142,406.191 148.975,402.858 149.5,399.5C 150.314,386.908 150.814,374.242 151,361.5C 151.383,360.944 151.883,360.611 152.5,360.5 Z"/></g>
<g><path style="opacity:0.571" fill="#cdbd81" d="M 193.5,347.5 C 194.496,347.414 195.329,347.748 196,348.5C 196.5,373.498 196.667,398.498 196.5,423.5C 196.5,429.5 196.5,435.5 196.5,441.5C 196.666,448.175 196.5,454.842 196,461.5C 195.023,462.774 194.189,462.774 193.5,461.5C 194.829,423.598 194.829,385.598 193.5,347.5 Z"/></g>
<g><path style="opacity:0.31" fill="#e8d99b" d="M 302.5,357.5 C 304.544,358.508 306.544,359.508 308.5,360.5C 309.155,370.426 309.488,380.426 309.5,390.5C 309.499,400.524 308.832,410.191 307.5,419.5C 307.667,400.497 307.5,381.497 307,362.5C 305.293,360.963 303.793,359.296 302.5,357.5 Z"/></g>
<g><path style="opacity:0.356" fill="#d1be89" d="M 152.5,362.5 C 152.175,369.687 152.509,376.687 153.5,383.5C 153.5,397.833 153.5,412.167 153.5,426.5C 152.833,426.5 152.167,426.5 151.5,426.5C 151.5,423.833 151.5,421.167 151.5,418.5C 151.17,399.659 151.503,380.993 152.5,362.5 Z"/></g>
<g><path style="opacity:0.529" fill="#d8cb92" d="M 280.5,337.5 C 275.603,340.551 271.103,344.218 267,348.5C 266.5,385.832 266.333,423.165 266.5,460.5C 264.787,459.365 264.12,457.698 264.5,455.5C 264.5,431.5 264.5,407.5 264.5,383.5C 264.168,371.149 264.501,358.815 265.5,346.5C 267.874,343.993 270.541,341.993 273.5,340.5C 275.209,337.465 277.543,336.465 280.5,337.5 Z"/></g>
<g><path style="opacity:0.169" fill="#eaddb1" d="M 334.5,349.5 C 335.966,350.347 336.8,351.68 337,353.5C 336.914,381.829 336.581,410.162 336,438.5C 334.074,440.539 331.907,442.206 329.5,443.5C 329.5,442.5 329.5,441.5 329.5,440.5C 331.638,440.297 333.305,439.297 334.5,437.5C 335.817,408.13 335.817,378.797 334.5,349.5 Z"/></g>
<g><path style="opacity:1" fill="#bca24e" d="M 126.5,399.5 C 130.254,401.925 132.921,405.258 134.5,409.5C 136.753,410.253 138.587,411.586 140,413.5C 140.945,417.469 143.278,418.802 147,417.5C 147.333,419.5 147.667,421.5 148,423.5C 148.737,421.404 149.903,419.737 151.5,418.5C 151.5,421.167 151.5,423.833 151.5,426.5C 150.905,429.113 150.071,429.113 149,426.5C 148.333,428.167 148.333,429.833 149,431.5C 150.584,430.139 152.418,429.472 154.5,429.5C 154.579,431.666 155.246,433.666 156.5,435.5C 155.637,437.872 154.471,437.872 153,435.5C 152.51,436.793 152.343,438.127 152.5,439.5C 154.655,439.372 156.655,439.872 158.5,441C 162.127,444.463 165.127,448.297 167.5,452.5C 168.833,452.5 170.167,452.5 171.5,452.5C 171.5,453.5 171.5,454.5 171.5,455.5C 174.5,455.833 175.833,454.5 175.5,451.5C 178.5,451.167 179.833,452.5 179.5,455.5C 176.068,455.248 175.068,456.581 176.5,459.5C 178.123,458.524 179.457,459.024 180.5,461C 181.833,461.333 183.167,461.667 184.5,462C 184.982,463.008 185.148,464.175 185,465.5C 192.267,473.44 200.1,480.607 208.5,487C 208.167,487.333 207.833,487.667 207.5,488C 209.361,490.205 210.861,492.705 212,495.5C 215,496.833 218,498.167 221,499.5C 221.192,501.577 221.692,503.577 222.5,505.5C 223.167,504.167 223.833,502.833 224.5,501.5C 226.994,504.826 229.994,507.66 233.5,510C 231.527,510.495 229.527,510.662 227.5,510.5C 227.5,511.5 227.5,512.5 227.5,513.5C 230.85,513.665 234.183,513.498 237.5,513C 238,512.5 238.5,512 239,511.5C 240.008,513.259 241.508,514.426 243.5,515C 242.833,515.333 242.167,515.667 241.5,516C 241.728,516.399 242.062,516.565 242.5,516.5C 242.611,517.117 242.944,517.617 243.5,518C 240.492,519.728 237.492,521.394 234.5,523C 233.663,524.011 233.33,525.178 233.5,526.5C 231.833,526.5 230.167,526.5 228.5,526.5C 228.67,525.178 228.337,524.011 227.5,523C 224.274,521.277 220.941,519.777 217.5,518.5C 215.427,514.042 212.593,510.042 209,506.5C 208.517,505.552 208.351,504.552 208.5,503.5C 206.876,503.36 205.71,504.027 205,505.5C 203.812,504.437 203.312,503.103 203.5,501.5C 200.673,501.416 198.006,500.75 195.5,499.5C 194.833,499.5 194.5,499.167 194.5,498.5C 194.5,497.5 194.5,496.5 194.5,495.5C 193.5,495.5 192.5,495.5 191.5,495.5C 191.5,494.167 191.5,492.833 191.5,491.5C 190.325,491.719 189.325,491.386 188.5,490.5C 189.077,488.45 190.41,487.45 192.5,487.5C 192.5,486.167 192.5,484.833 192.5,483.5C 189.407,480.937 186.073,478.437 182.5,476C 180.167,473 177.833,470 175.5,467C 173.471,466.319 171.471,465.986 169.5,466C 171.259,468.334 173.259,470.334 175.5,472C 174.793,474.54 173.127,475.707 170.5,475.5C 168.101,472.702 166.434,469.369 165.5,465.5C 162.368,465.216 159.368,464.383 156.5,463C 154.911,460.905 152.911,459.405 150.5,458.5C 149.833,458.5 149.167,458.5 148.5,458.5C 146.451,457.118 144.785,455.452 143.5,453.5C 143.719,452.325 143.386,451.325 142.5,450.5C 139.64,448.14 136.64,445.973 133.5,444C 131.859,442.871 130.859,441.371 130.5,439.5C 129.685,438.163 128.518,437.163 127,436.5C 126.5,424.171 126.333,411.838 126.5,399.5 Z"/></g>
<g><path style="opacity:1" fill="#d9bd6a" d="M 190.5,342.5 C 192.589,342.857 194.589,343.523 196.5,344.5C 197.578,347.439 199.078,350.105 201,352.5C 201.333,371.167 201.667,389.833 202,408.5C 202.333,408.167 202.667,407.833 203,407.5C 204.551,417.946 205.884,417.946 207,407.5C 207.7,409.032 208.866,410.032 210.5,410.5C 211.308,408.577 211.808,406.577 212,404.5C 213,405.5 214,406.5 215,407.5C 215.307,412.882 215.974,418.215 217,423.5C 219.7,398.916 221.033,374.249 221,349.5C 221.186,346.964 221.686,344.631 222.5,342.5C 222.5,369.5 222.5,396.5 222.5,423.5C 220.854,430.66 220.521,437.994 221.5,445.5C 221.036,448.349 220.369,451.016 219.5,453.5C 219.657,452.127 219.49,450.793 219,449.5C 218.333,460.167 217.667,460.167 217,449.5C 216.667,450.833 216.333,452.167 216,453.5C 214.904,450.233 212.737,448.233 209.5,447.5C 209.271,445.567 208.438,443.9 207,442.5C 206.902,444.619 206.069,446.286 204.5,447.5C 203.167,441.833 201.833,436.167 200.5,430.5C 199.808,429.975 199.308,429.308 199,428.5C 198.667,428.833 198.333,429.167 198,429.5C 197.809,427.292 197.309,425.292 196.5,423.5C 196.667,398.498 196.5,373.498 196,348.5C 195.329,347.748 194.496,347.414 193.5,347.5C 193.611,346.883 193.944,346.383 194.5,346C 192.676,345.34 191.343,344.173 190.5,342.5 Z"/></g>
<g><path style="opacity:0.739" fill="#b9a667" d="M 127.5,350.5 C 126.617,355.103 126.283,359.77 126.5,364.5C 126.5,372.167 126.5,379.833 126.5,387.5C 126.5,391.5 126.5,395.5 126.5,399.5C 126.333,411.838 126.5,424.171 127,436.5C 128.518,437.163 129.685,438.163 130.5,439.5C 129.391,439.557 128.391,439.89 127.5,440.5C 126.531,439.691 125.698,438.691 125,437.5C 124.17,408.664 124.336,379.997 125.5,351.5C 126.167,351.167 126.833,350.833 127.5,350.5 Z"/></g>
<g><path style="opacity:1" fill="#e4c975" d="M 323.5,341.5 C 327.176,344.232 330.842,346.899 334.5,349.5C 335.817,378.797 335.817,408.13 334.5,437.5C 333.305,439.297 331.638,440.297 329.5,440.5C 329.5,441.5 329.5,442.5 329.5,443.5C 328.5,445.167 327.167,446.5 325.5,447.5C 321.65,447.97 317.983,448.97 314.5,450.5C 313.97,453.682 312.97,456.682 311.5,459.5C 309.155,462.177 306.488,464.51 303.5,466.5C 303.48,464.857 304.147,463.524 305.5,462.5C 302.658,461.996 301.325,460.329 301.5,457.5C 297.932,457.241 296.599,455.241 297.5,451.5C 291.217,450.991 290.55,449.324 295.5,446.5C 293.433,444.255 291.1,443.921 288.5,445.5C 293.521,441.146 298.188,436.479 302.5,431.5C 308.189,429.556 309.856,425.89 307.5,420.5C 307.5,420.167 307.5,419.833 307.5,419.5C 308.832,410.191 309.499,400.524 309.5,390.5C 309.488,380.426 309.155,370.426 308.5,360.5C 309.748,361.334 310.415,362.667 310.5,364.5C 310.99,370.852 311.657,377.185 312.5,383.5C 316.192,386.028 317.858,389.528 317.5,394C 315.463,401.781 315.13,409.615 316.5,417.5C 316.06,420.214 314.726,422.38 312.5,424C 313.867,426.301 314.534,428.801 314.5,431.5C 317.833,432.167 319.833,430.833 320.5,427.5C 319.024,425.58 318.024,423.413 317.5,421C 319.735,419.355 320.735,420.188 320.5,423.5C 323.157,423.162 325.49,423.829 327.5,425.5C 328.192,424.975 328.692,424.308 329,423.5C 329.471,425.246 330.138,426.913 331,428.5C 332,427.5 333,426.5 334,425.5C 334.833,401.16 334.666,376.826 333.5,352.5C 331.865,351.67 330.198,351.503 328.5,352C 328.5,350.667 328.5,349.333 328.5,348C 326.89,346.505 325.224,346.339 323.5,347.5C 322.481,345.54 322.481,343.54 323.5,341.5 Z"/></g>
<g><path style="opacity:0.388" fill="#e8d9ad" d="M 307.5,420.5 C 309.856,425.89 308.189,429.556 302.5,431.5C 303.793,429.704 305.293,428.037 307,426.5C 307.495,424.527 307.662,422.527 307.5,420.5 Z"/></g>
<g><path style="opacity:0.475" fill="#ddcd9c" d="M 302.5,431.5 C 298.188,436.479 293.521,441.146 288.5,445.5C 287.5,446.5 286.5,447.5 285.5,448.5C 282.083,451.255 278.417,453.588 274.5,455.5C 283.533,447.132 292.867,439.132 302.5,431.5 Z"/></g>
<g><path style="opacity:1" fill="#cbb15c" d="M 196.5,423.5 C 197.309,425.292 197.809,427.292 198,429.5C 198.333,429.167 198.667,428.833 199,428.5C 199.308,429.308 199.808,429.975 200.5,430.5C 201.833,436.167 203.167,441.833 204.5,447.5C 206.069,446.286 206.902,444.619 207,442.5C 208.438,443.9 209.271,445.567 209.5,447.5C 212.737,448.233 214.904,450.233 216,453.5C 216.333,452.167 216.667,450.833 217,449.5C 217.667,460.167 218.333,460.167 219,449.5C 219.49,450.793 219.657,452.127 219.5,453.5C 220.362,458.813 220.529,464.146 220,469.5C 219.581,465.148 218.914,464.815 218,468.5C 217.667,467.167 217.333,465.833 217,464.5C 216.581,465.672 215.915,466.672 215,467.5C 213.914,465.002 212.247,463.002 210,461.5C 209.667,461.833 209.333,462.167 209,462.5C 207.875,459.216 206.875,455.883 206,452.5C 205.333,451.833 204.667,451.167 204,450.5C 203.667,453.833 203.333,457.167 203,460.5C 201.956,458.285 201.29,455.952 201,453.5C 200.311,454.357 199.478,455.023 198.5,455.5C 197.833,450.683 197.166,446.017 196.5,441.5C 196.5,435.5 196.5,429.5 196.5,423.5 Z"/></g>
<g><path style="opacity:1" fill="#dabe6d" d="M 238.5,332.5 C 239.494,342.319 239.827,352.319 239.5,362.5C 239.116,389.523 239.616,416.523 241,443.5C 244.336,446.855 248.502,448.355 253.5,448C 255.627,450.945 256.127,454.112 255,457.5C 255.333,457.167 255.667,456.833 256,456.5C 256.928,459.035 258.762,460.035 261.5,459.5C 261.491,457.692 261.991,456.025 263,454.5C 263.383,455.056 263.883,455.389 264.5,455.5C 264.12,457.698 264.787,459.365 266.5,460.5C 266.435,460.938 266.601,461.272 267,461.5C 269.663,459.666 272.163,457.666 274.5,455.5C 278.417,453.588 282.083,451.255 285.5,448.5C 285.821,450.048 286.821,450.715 288.5,450.5C 287.62,455.289 285.786,455.622 283,451.5C 278.582,455.085 275.082,459.419 272.5,464.5C 271.808,463.975 271.308,463.308 271,462.5C 271.152,465.447 271.319,468.447 271.5,471.5C 275.182,471.335 278.848,471.501 282.5,472C 285.179,472.672 287.512,473.839 289.5,475.5C 291.332,474.179 293.332,473.179 295.5,472.5C 295.345,468.851 293.678,466.184 290.5,464.5C 291.365,463.417 292.365,463.251 293.5,464C 294.995,465.161 296.495,466.327 298,467.5C 299.766,466.767 301.599,466.433 303.5,466.5C 298.821,471.178 293.821,475.511 288.5,479.5C 286.5,479.5 284.5,479.5 282.5,479.5C 282.321,481.606 281.321,483.272 279.5,484.5C 278.137,483.121 277.137,483.287 276.5,485C 277.943,487.078 277.276,487.911 274.5,487.5C 273.323,485.968 271.989,484.468 270.5,483C 270.616,481.732 270.949,480.398 271.5,479C 267.882,478.871 266.215,477.038 266.5,473.5C 262.651,473.498 259.985,471.665 258.5,468C 256.725,466.561 254.725,465.561 252.5,465C 251.333,461.833 249.167,459.667 246,458.5C 245.517,457.552 245.351,456.552 245.5,455.5C 244.5,455.5 243.5,455.5 242.5,455.5C 241.597,452.49 240.597,450.156 239.5,448.5C 239.167,448.5 238.833,448.5 238.5,448.5C 238.5,409.833 238.5,371.167 238.5,332.5 Z"/></g>
<g><path style="opacity:0.369" fill="#b9a77a" d="M 130.5,439.5 C 130.859,441.371 131.859,442.871 133.5,444C 136.64,445.973 139.64,448.14 142.5,450.5C 143.386,451.325 143.719,452.325 143.5,453.5C 137.581,449.917 132.248,445.584 127.5,440.5C 128.391,439.89 129.391,439.557 130.5,439.5 Z"/></g>
<g><path style="opacity:1" fill="#dfca8c" d="M 325.5,447.5 C 321.153,451.845 316.486,455.845 311.5,459.5C 312.97,456.682 313.97,453.682 314.5,450.5C 317.983,448.97 321.65,447.97 325.5,447.5 Z"/></g>
<g><path style="opacity:1" fill="#dec36b" d="M 303.5,466.5 C 301.599,466.433 299.766,466.767 298,467.5C 296.495,466.327 294.995,465.161 293.5,464C 292.365,463.251 291.365,463.417 290.5,464.5C 293.678,466.184 295.345,468.851 295.5,472.5C 293.332,473.179 291.332,474.179 289.5,475.5C 287.512,473.839 285.179,472.672 282.5,472C 278.848,471.501 275.182,471.335 271.5,471.5C 271.319,468.447 271.152,465.447 271,462.5C 271.308,463.308 271.808,463.975 272.5,464.5C 275.082,459.419 278.582,455.085 283,451.5C 285.786,455.622 287.62,455.289 288.5,450.5C 286.821,450.715 285.821,450.048 285.5,448.5C 286.5,447.5 287.5,446.5 288.5,445.5C 291.1,443.921 293.433,444.255 295.5,446.5C 290.55,449.324 291.217,450.991 297.5,451.5C 296.599,455.241 297.932,457.241 301.5,457.5C 301.325,460.329 302.658,461.996 305.5,462.5C 304.147,463.524 303.48,464.857 303.5,466.5 Z"/></g>
<g><path style="opacity:0.173" fill="#d8d2b9" d="M 148.5,458.5 C 149.167,458.5 149.833,458.5 150.5,458.5C 151.6,459.605 152.267,460.938 152.5,462.5C 150.833,461.5 149.5,460.167 148.5,458.5 Z"/></g>
<g><path style="opacity:1" fill="#c2a856" d="M 222.5,423.5 C 222.171,436.011 222.505,448.345 223.5,460.5C 223.5,461.167 223.5,461.833 223.5,462.5C 222.343,470.99 222.176,479.657 223,488.5C 223.671,489.252 224.504,489.586 225.5,489.5C 226.178,492.535 228.178,494.201 231.5,494.5C 233.876,492.791 235.876,490.791 237.5,488.5C 238.496,475.344 238.829,462.01 238.5,448.5C 238.833,448.5 239.167,448.5 239.5,448.5C 239.661,462.564 239.661,476.564 239.5,490.5C 241.62,492.744 244.12,494.41 247,495.5C 247.333,495.167 247.667,494.833 248,494.5C 251.54,496.835 254.707,499.501 257.5,502.5C 257.5,503.833 257.5,505.167 257.5,506.5C 257.5,507.167 257.167,507.5 256.5,507.5C 254.738,507.357 253.071,507.691 251.5,508.5C 248.732,511.612 245.732,514.278 242.5,516.5C 242.062,516.565 241.728,516.399 241.5,516C 242.167,515.667 242.833,515.333 243.5,515C 241.508,514.426 240.008,513.259 239,511.5C 238.5,512 238,512.5 237.5,513C 234.183,513.498 230.85,513.665 227.5,513.5C 227.5,512.5 227.5,511.5 227.5,510.5C 229.527,510.662 231.527,510.495 233.5,510C 229.994,507.66 226.994,504.826 224.5,501.5C 223.833,502.833 223.167,504.167 222.5,505.5C 221.692,503.577 221.192,501.577 221,499.5C 218,498.167 215,496.833 212,495.5C 210.861,492.705 209.361,490.205 207.5,488C 207.833,487.667 208.167,487.333 208.5,487C 200.1,480.607 192.267,473.44 185,465.5C 185.148,464.175 184.982,463.008 184.5,462C 183.167,461.667 181.833,461.333 180.5,461C 179.457,459.024 178.123,458.524 176.5,459.5C 175.068,456.581 176.068,455.248 179.5,455.5C 179.833,452.5 178.5,451.167 175.5,451.5C 175.833,454.5 174.5,455.833 171.5,455.5C 171.5,454.5 171.5,453.5 171.5,452.5C 170.167,452.5 168.833,452.5 167.5,452.5C 165.127,448.297 162.127,444.463 158.5,441C 156.655,439.872 154.655,439.372 152.5,439.5C 152.343,438.127 152.51,436.793 153,435.5C 154.471,437.872 155.637,437.872 156.5,435.5C 155.246,433.666 154.579,431.666 154.5,429.5C 152.418,429.472 150.584,430.139 149,431.5C 148.333,429.833 148.333,428.167 149,426.5C 150.071,429.113 150.905,429.113 151.5,426.5C 152.167,426.5 152.833,426.5 153.5,426.5C 164.822,435.823 175.822,445.49 186.5,455.5C 187.363,459.113 189.697,461.113 193.5,461.5C 194.189,462.774 195.023,462.774 196,461.5C 196.5,454.842 196.666,448.175 196.5,441.5C 197.166,446.017 197.833,450.683 198.5,455.5C 199.478,455.023 200.311,454.357 201,453.5C 201.29,455.952 201.956,458.285 203,460.5C 203.333,457.167 203.667,453.833 204,450.5C 204.667,451.167 205.333,451.833 206,452.5C 206.875,455.883 207.875,459.216 209,462.5C 209.333,462.167 209.667,461.833 210,461.5C 212.247,463.002 213.914,465.002 215,467.5C 215.915,466.672 216.581,465.672 217,464.5C 217.333,465.833 217.667,467.167 218,468.5C 218.914,464.815 219.581,465.148 220,469.5C 220.529,464.146 220.362,458.813 219.5,453.5C 220.369,451.016 221.036,448.349 221.5,445.5C 220.521,437.994 220.854,430.66 222.5,423.5 Z"/></g>
<g><path style="opacity:0.337" fill="#c5b688" d="M 186.5,455.5 C 188.858,457.529 191.192,459.529 193.5,461.5C 189.697,461.113 187.363,459.113 186.5,455.5 Z"/></g>
<g><path style="opacity:1" fill="#d1b561" d="M 274.5,487.5 C 274.5,488.5 274.5,489.5 274.5,490.5C 271.394,489.267 268.394,489.433 265.5,491C 266.308,491.308 266.975,491.808 267.5,492.5C 266.754,493.736 266.421,495.07 266.5,496.5C 264.61,496.703 263.11,496.037 262,494.5C 261.075,495.047 260.242,495.713 259.5,496.5C 261.086,498.173 261.753,500.173 261.5,502.5C 260.167,502.5 258.833,502.5 257.5,502.5C 254.707,499.501 251.54,496.835 248,494.5C 247.667,494.833 247.333,495.167 247,495.5C 244.12,494.41 241.62,492.744 239.5,490.5C 239.661,476.564 239.661,462.564 239.5,448.5C 240.597,450.156 241.597,452.49 242.5,455.5C 243.5,455.5 244.5,455.5 245.5,455.5C 245.351,456.552 245.517,457.552 246,458.5C 249.167,459.667 251.333,461.833 252.5,465C 254.725,465.561 256.725,466.561 258.5,468C 259.985,471.665 262.651,473.498 266.5,473.5C 266.215,477.038 267.882,478.871 271.5,479C 270.949,480.398 270.616,481.732 270.5,483C 271.989,484.468 273.323,485.968 274.5,487.5 Z"/></g>
<g><path style="opacity:1" fill="#b79f53" d="M 150.5,458.5 C 152.911,459.405 154.911,460.905 156.5,463C 159.368,464.383 162.368,465.216 165.5,465.5C 166.434,469.369 168.101,472.702 170.5,475.5C 173.127,475.707 174.793,474.54 175.5,472C 173.259,470.334 171.259,468.334 169.5,466C 171.471,465.986 173.471,466.319 175.5,467C 177.833,470 180.167,473 182.5,476C 186.073,478.437 189.407,480.937 192.5,483.5C 192.5,484.833 192.5,486.167 192.5,487.5C 190.41,487.45 189.077,488.45 188.5,490.5C 189.325,491.386 190.325,491.719 191.5,491.5C 191.5,492.833 191.5,494.167 191.5,495.5C 192.5,495.5 193.5,495.5 194.5,495.5C 194.5,496.5 194.5,497.5 194.5,498.5C 189.848,495.179 185.515,491.513 181.5,487.5C 181.141,485.629 180.141,484.129 178.5,483C 175.603,480.59 172.603,478.423 169.5,476.5C 163.68,472.08 158.013,467.414 152.5,462.5C 152.267,460.938 151.6,459.605 150.5,458.5 Z"/></g>
<g><path style="opacity:0.071" fill="#c3b27d" d="M 223.5,462.5 C 223.334,470.84 223.5,479.173 224,487.5C 224.717,488.044 225.217,488.711 225.5,489.5C 224.504,489.586 223.671,489.252 223,488.5C 222.176,479.657 222.343,470.99 223.5,462.5 Z"/></g>
<g><path style="opacity:0.353" fill="#c4b88e" d="M 169.5,476.5 C 172.603,478.423 175.603,480.59 178.5,483C 180.141,484.129 181.141,485.629 181.5,487.5C 176.874,484.542 172.874,480.876 169.5,476.5 Z"/></g>
<g><path style="opacity:0.31" fill="#c7b98a" d="M 237.5,488.5 C 235.876,490.791 233.876,492.791 231.5,494.5C 228.178,494.201 226.178,492.535 225.5,489.5C 227.175,491.002 229.008,492.335 231,493.5C 232.758,491.235 234.925,489.568 237.5,488.5 Z"/></g>
<g><path style="opacity:1" fill="#d0ba76" d="M 288.5,479.5 C 278.468,488.867 268.135,497.867 257.5,506.5C 257.5,505.167 257.5,503.833 257.5,502.5C 258.833,502.5 260.167,502.5 261.5,502.5C 261.753,500.173 261.086,498.173 259.5,496.5C 260.242,495.713 261.075,495.047 262,494.5C 263.11,496.037 264.61,496.703 266.5,496.5C 266.421,495.07 266.754,493.736 267.5,492.5C 266.975,491.808 266.308,491.308 265.5,491C 268.394,489.433 271.394,489.267 274.5,490.5C 274.5,489.5 274.5,488.5 274.5,487.5C 277.276,487.911 277.943,487.078 276.5,485C 277.137,483.287 278.137,483.121 279.5,484.5C 281.321,483.272 282.321,481.606 282.5,479.5C 284.5,479.5 286.5,479.5 288.5,479.5 Z"/></g>
<g><path style="opacity:0.998" fill="#b7a162" d="M 195.5,499.5 C 198.006,500.75 200.673,501.416 203.5,501.5C 203.312,503.103 203.812,504.437 205,505.5C 205.71,504.027 206.876,503.36 208.5,503.5C 208.351,504.552 208.517,505.552 209,506.5C 212.593,510.042 215.427,514.042 217.5,518.5C 209.571,512.908 202.238,506.574 195.5,499.5 Z"/></g>
<g><path style="opacity:1" fill="#bba96f" d="M 256.5,507.5 C 248.993,515.172 240.993,522.338 232.5,529C 231.167,529.667 229.833,529.667 228.5,529C 224.635,525.633 220.968,522.133 217.5,518.5C 220.941,519.777 224.274,521.277 227.5,523C 228.337,524.011 228.67,525.178 228.5,526.5C 230.167,526.5 231.833,526.5 233.5,526.5C 233.33,525.178 233.663,524.011 234.5,523C 237.492,521.394 240.492,519.728 243.5,518C 242.944,517.617 242.611,517.117 242.5,516.5C 245.732,514.278 248.732,511.612 251.5,508.5C 253.071,507.691 254.738,507.357 256.5,507.5 Z"/></g>
</svg>
